<svg id="Layer_1" data-name="Layer 1" xmlns="http://www.w3.org/2000/svg" viewBox="0 0 400 300" data-imageid="jogging-8" imageName="Travel plans" class="illustrations_image" style="width: 241px;"><path d="M66.85,148.35s-6,16.69,0,34.23S75,224.75,97.22,214s21-22.43,21-22.43L89.39,145.39Z" fill="#f4a28c"/><path d="M66.85,148.35s-6,16.69,0,34.23S75,224.75,97.22,214s21-22.43,21-22.43L89.39,145.39Z" opacity="0.04"/><rect x="142.99" y="59.61" width="177.35" height="123.06" fill="#c1c1c1"/><rect x="156.98" y="70.82" width="149.02" height="99.46" fill="#e6e6e6"/><path d="M171,113.39s7.8.34,3.12,6.8-1.7,6.62,1.5,10.63-8.82,51.84-8.82,51.84H143l10.81-21.4,12.26-41.07Z" opacity="0.04"/><path d="M107.75,97.49A5.78,5.78,0,0,1,116,102.6c.15,4.58-.53,11.06-5.64,10.42-7.84-1-6.88-11.17-6.88-11.17A10.57,10.57,0,0,1,107.75,97.49Z" fill="#f4a28c"/><path d="M132.94,132.4a48.72,48.72,0,0,0-55.68-6.2c-7.82,4.32-14.18,11.27-12.6,22.34,3.71,26,21.61,44.52,20.13,66.91l46.36,1.21,2.68-28.75A19.75,19.75,0,0,1,141.46,174c4.36-3.33,8.92-9,7-17.53C146.67,148.87,141.19,139.72,132.94,132.4Z" fill="#68e1fd" class="target-color"/><path d="M113.51,158.07s10.38,11.3-3.3,20.18S105.43,216,105.43,216l-20.64-.54s1.85-12.58-9.64-35.51,33.23-47.17,33.23-47.17Z" opacity="0.04"/><path d="M103.4,130.44a12.56,12.56,0,0,1,20.21-10.07l.35.27c11.87,9.32,15.72,44.19,15.72,44.19s18.62-32,22-40.47,6.83-15.19,9.56-14.76-3.09,8.14-3.09,8.14,7.17,1.79,5.75,6.36a8.5,8.5,0,0,1-6.14,5.47s-8.27,71.74-34.09,59.79C120.28,183.15,103.72,156.17,103.4,130.44Z" fill="#f4a28c"/><path d="M116.45,90.09s2,7-4.54,10.34,11.54,18.74-2.9,33.22,9.62,29.19-8.45,38.53-32.13,12.88-40.15-3.9S58.88,136.85,71,125.44s18.85-14.14,20.3-27.92S114.38,80,116.45,90.09Z" fill="#24285b"/><path d="M85,97.79l40.85-12.07L115,84.39,114.28,83a9.87,9.87,0,0,0-12-5.12l-3.93,1.3a9.86,9.86,0,0,0-6.7,10.5l.08.72Z" fill="#ffd200"/><path d="M91.71,90.38s10.27-2.21,23.24-6a18.89,18.89,0,0,0-1.67-3.07,200.65,200.65,0,0,1-21.53,5.3A11,11,0,0,0,91.71,90.38Z" opacity="0.04"/><path d="M111.82,166.67,138.75,156s-3.41-35.08-19.88-39.15S94.49,130.74,111.82,166.67Z" fill="#68e1fd" class="target-color"/><path d="M111.82,166.67,138.75,156s-3.41-35.08-19.88-39.15S94.49,130.74,111.82,166.67Z" fill="#fff" opacity="0.44"/><polygon points="84.79 215.45 79.59 255.23 140.34 255.23 131.15 216.66 84.79 215.45" fill="#24285b"/><rect x="253.14" y="170.34" width="27.07" height="23.23" fill="#ffd200"/><rect x="263.43" y="165.19" width="6.49" height="9.6" fill="#fff" opacity="0.53"/><rect x="289.34" y="170.34" width="27.07" height="23.23" fill="#ffd200"/><rect x="299.63" y="165.19" width="6.49" height="9.6" fill="#fff" opacity="0.53"/><g opacity="0.51"><path d="M230.16,102.26a.93.93,0,0,1-.18,1,.43.43,0,0,0,.09.38.91.91,0,0,0,.56.26c.3,0,.65-.29.82.18.61,0,1.05-.64,1.71-.32.16.08.48-.18.75-.29a2.81,2.81,0,0,1,0-.58c.15-.81.29-.85.94-.34.25-.22.35-.42,0-.71s-.19-.43.15-.53.5-.07.75-.09l1-.08V101a1.92,1.92,0,0,0-.54-.11,5.61,5.61,0,0,1-1.08.23,2.64,2.64,0,0,1-1.16-.37c-.18-.12.06-1.13.27-1.28.37-.3.75-.6,1.26-1-.26-.09-.49-.25-.67-.2a2.35,2.35,0,0,0-.85.46c-.21.18-.34.43-.54.63s-.51.31-.7.52c-.37.39-.32.67.1,1a.42.42,0,0,1,.2.57.45.45,0,0,1-.25.22.85.85,0,0,0-.49.74c0,.31,0,.76-.59.64-.68.89-.66,0-.85-.33a1.24,1.24,0,0,0-.1-.2c-.19-.31-.33-.76-.61-.88s-.57.28-.88.42a.71.71,0,0,1-.89-.39,4,4,0,0,1-.27-1,.85.85,0,0,1,.25-.64,3.54,3.54,0,0,1,1.41-.8,2.68,2.68,0,0,0,1-.86c.42-.47.81-1,1.16-1.43l-.78.19a3.68,3.68,0,0,1,.59-.45,3.44,3.44,0,0,1,.69-.16c.23-.13.61-.57.9-.51.52.1.9-.29,1.39-.17.23.05.53-.22.91-.4l-.2.42a2.12,2.12,0,0,1,.66-.21,7.21,7.21,0,0,1,1.12.24l-.13.2c.8.19,1.61.34,2.39.57a6.86,6.86,0,0,1,1.28.55c.34.17.36.42,0,.6a2.92,2.92,0,0,1-2.08,0,1.34,1.34,0,0,0-.66-.08l.63.33c0,.75.46,1.14,1.2.92l-.5-.32,0-.12,1.28.2-.23-.47c.25-.12.51-.23.77-.33a6.14,6.14,0,0,1,.86-.12,1.2,1.2,0,0,1-.2-.43,3.2,3.2,0,0,1,0-.69l1,.21v.19l-.47.17c.36.55.5.5,1,.13a5.54,5.54,0,0,1,1.35-.63,3.12,3.12,0,0,1,.53-.11c.38.61.94,0,1.44,0,.22,0,.47-.32.66.09a5.76,5.76,0,0,0,.59-.18l-1-.74a18,18,0,0,1,2.07.39,4.89,4.89,0,0,0,1.74.52,1.33,1.33,0,0,1-.7-1.19,4.46,4.46,0,0,1,.7-.8,1.83,1.83,0,0,1,.86-.19,2.45,2.45,0,0,1,.65.15l-.32.46.24,1.62.23.07-1,1a1.14,1.14,0,0,0,1.42-1.14c.33,0,.75-.16.78.43.38-.33.29-.62-.17-.65h-.93c0-.39-.08-.78-.12-1.24l.66-.43v.57l.58.09-.43-.37.7.09,0-.12-.34-.23,0-.12c.43.13.85.27,1.31.4a4.34,4.34,0,0,0,.52.09.7.7,0,0,0,0-.14c-.15-.08-.31-.14-.54-.24l-.15-.5,2.24-.19-.33-.36a6.49,6.49,0,0,1,3.3-.61,4.83,4.83,0,0,0,1.19-.18s.06,0,.09-.05a1.87,1.87,0,0,0,1-.42c.43-.3.92-.66,1.38,0,.09.13.37.12.55.18a10.94,10.94,0,0,1,1.81,0c.22,0,.38.42.58.66l-2.52.9v.1c.16,0,.33,0,.5,0s.43,0,.55,0c.57-.43,1.15-.17,1.73-.1.23,0,.49-.14.71-.1a2.13,2.13,0,0,1,.76.36,1.13,1.13,0,0,0,1.49-.29.55.55,0,0,1,.43-.1l1.7.27c-.07.65,0,1.2.81,1.22l.23-.38h2.69l-.28-.46a6.59,6.59,0,0,1,2-.11c.59.16,1.35,0,2,.52a3.22,3.22,0,0,0,1.76.3c.6,0,1.23-.11,1.66.54.1.14.47.12.71.14a10.84,10.84,0,0,0,1.14,0,5.89,5.89,0,0,0,.82-.15,4.51,4.51,0,0,1,.52,0l.11.18-.34.1,0,.11.92.28L286.5,96a12.67,12.67,0,0,1,2.9.43c.88.34,1.89.43,2.42,1.36.29-.41.55-.37,1.6.29-.34.28-.9.3-1,.83l-1.09-.34c-.19-.06-.37-.14-.56-.21a3,3,0,0,1-.42-.16,1.09,1.09,0,0,1-.22-.26,3.37,3.37,0,0,0-.1.34c0,.11,0,.1,0,.17l-1,.35a1.12,1.12,0,0,1,.52,1.08c-1.36-.25-2.27.52-3.26,1.16a.82.82,0,0,0-1.14-.13h0a.8.8,0,0,1-.46.07c-.74-.06-.85.63-1.33,1l.46.09c0,.3.07.56.11.85-.5,0-.66.27-.37.72-.26.27-1,.06-.72.79-.83-.12-.55.92-1.21,1.09-.2-1.16-.85-2.29,0-3.3a8.43,8.43,0,0,0,2.73-2.38l-.09-.14c-.12,0-.33.08-.33.11,0,.39-.27.43-.53.54s-.6.69-.75-.13a2.5,2.5,0,0,0-1,.09,1.65,1.65,0,0,0-.65.58c-.09.1-.06.3-.1.54l-1.28.17.25-.38a7.63,7.63,0,0,1-1.8.1c-1.28-.27-2,.55-2.78,1.22l-1.12,1a3.93,3.93,0,0,0,.53.55.69.69,0,0,0,.45,0c.19,0,.43-.27.52-.21s.51.4.48.56c-.2.87-.06,1.84-.61,2.63s-1,1.45-1.49,2.16a.84.84,0,0,1-1.17.21c-.25.37-.75.5-.79,1.11,0,.25-.5.47-.58.71a14.54,14.54,0,0,1,.54,1.57c.18.85-.62.8-1.16,1.13,0-.54.1-1,.11-1.52,0-.12-.14-.37-.2-.36-.67.07-.33-.32-.28-.58a2.14,2.14,0,0,1,.1-.22.84.84,0,0,0-1.16.13l-.09.13-.16-.11.24-.85c-.51-.11-.66.4-1,.61-.08.06-.13.17-.22.22a1.39,1.39,0,0,1-.33.1l.24.38c.08.11.2.29.23.32h1.39l-1.26,1.08c.33.81.6,1.46.88,2.13l-.43.38.62.1c-.27.53-.54,1.07-.82,1.6a6,6,0,0,1-.65,1.19c-.34.39-.58.9-1.24,1a3.62,3.62,0,0,0-1.22.5c-.18.1-.3.32-.5.53l-.07-.51a1.24,1.24,0,0,0-1.35.92c-.18.86.5,1.36,1,1.87l.76-.19.09.13a5.56,5.56,0,0,0-.42.57.68.68,0,0,0-.17.35c.05.78.11,1.5-.83,1.89-.26.1-.38.56-.68.82V126l-1.57-1.84a1,1,0,0,0-.17.27,3.53,3.53,0,0,1-.11.65c-.38.78.14,1.44.28,2.13.06.29.51.47.68.76a3.58,3.58,0,0,1,.34,1,4.64,4.64,0,0,1,.17,1.28,4.23,4.23,0,0,1-.89-.85,5.12,5.12,0,0,1-.33-1.22,1.75,1.75,0,0,0-.27-.71,2.12,2.12,0,0,1-.38-2c.18-1.1-.33-2.07-.48-3.17-.37.31-.47.85-1.08.53.38-.85-.11-1.52-.59-2.21a3,3,0,0,1-.29-.88c-.43.09-.85.16-1.24.26-.15,0-.37.14-.39.24-.15.81-.93,1.13-1.32,1.74-.26.4-.69.69-1,1.08a1.46,1.46,0,0,0-.11.8,4.24,4.24,0,0,1-1,3,18.71,18.71,0,0,1-1.13-3.49c-.3-1.18-.46-2.4-.66-3.44l-.42.52-.85-.72.36-.14c-.43-.47-.83-1-1.28-1.44-.69,0-1.46,0-2.23,0s-.81-.13-1.07-.79a1.4,1.4,0,0,1-1.9-.61,1.08,1.08,0,0,1-.08-.19c0-.1-.08-.2-.13-.3-.36-.69-.47-.71-1-.14l.95,2,.21-.52c.07.29.1.43.12.54s.07.39.1.59c.32-.06.7.23.94-.25a6,6,0,0,1,.62-.81,3,3,0,0,0,.09.73.75.75,0,0,0,.35.45c.85.43,1,1,.34,1.71a1.94,1.94,0,0,0-.27.43c-.08.13-.15.28-.25.42a3.79,3.79,0,0,1-1.27,1c-.54.32-1,.79-1.51,1.13a15.38,15.38,0,0,1-1.55.83c-.29.15-.43,0-.49-.29a6.29,6.29,0,0,0-.69-2.66,6.56,6.56,0,0,1-.54-.83,7,7,0,0,1-.27-.81c-.14-.37-.29-.73-.43-1.09s-.4-.89-.61-1.33c-.13-.26-.29-.51-.4-.7l-.81.24-.05-.16.43-.32-.85-.88c.1-.07.3-.29.51-.3.54,0,.7-.33.8-.76l.49-2.17-.91.43s0,0-.06,0c-.36-.09-.89-.37-1.05-.23-.5.44-.75-.07-1-.2s-.36-.49-.52-.73l.07-1c-.36-.21-.35-.2-.77.18-.09.08-.32,0-.56,0a4.57,4.57,0,0,1,.42.71.75.75,0,0,1,.06.51,4.86,4.86,0,0,1-.43.77c-.38-.85-1.15-1.53-1.16-2.62,0-.24-.34-.54-.6-.7-.42-.25-.87-.42-1-1,0,0-.2,0-.26-.11a1.29,1.29,0,0,1-.18-.35c-.54.14-.62.4-.23.88.17.19.26.43.43.64a.94.94,0,0,0,.37.32c.51.11.75.58,1.14.85,0,0,0,.1.05.21l-.67-.29.19.68-.43.56c.25-.94-.42-1.25-1-1.68a5.51,5.51,0,0,1-.9-1c-.17-.19-.32-.39-.47-.59a5.5,5.5,0,0,0-.64.43.68.68,0,0,1-.85.15c-.32-.13-.67-.16-.64.42,0,.19-.25.4-.4.58a8.86,8.86,0,0,0-.72.79c-.08.11,0,.33,0,.63-.28.78-1.15.91-2,1.12l-.35-.46-.59.07c-.59-1,.23-2-.26-3,.85-.53,1.77-.11,2.67-.18.06-.5.43-1,0-1.51a11.54,11.54,0,0,1-1-1.1l1.07,0-.06-.5a.89.89,0,0,0,1.18-.42s0,0,0,0,.21-.17.31-.27l.94-.93,1.21-.49a4.36,4.36,0,0,0,0-.51C229.35,102.7,229.34,102.71,230.16,102.26Z" fill="#c1c1c1"/><path d="M183.08,109.11h.63a2,2,0,0,0-1.11-1,3.1,3.1,0,0,1-1.54-1.79c-.08-.19-.38-.29-.55-.42l-.14.39c-.22-.5-.85-.7-.36-1.3,0,0-.32-.51-.43-.49a1.81,1.81,0,0,1-1.32-.43,3.71,3.71,0,0,0-.85-.29l-2.06-.37.07.31-1.43.37.11-.75-.85.7c.16.33-1.2,1.48-2.05,1.71l.29.27,0,.17c-.66-.58-1.2,0-1.84,0l.91-.48a6.94,6.94,0,0,0,1-.52,5.5,5.5,0,0,0,.75-.85h-1.64l-.12-.67c-.89.64-.85-.42-1.27-.6.23-.9,1.06-.78,1.7-1l-.11-.49c-1,.09-1.18.38-2.23-.43.23-.07.43-.13.63-.21s.39-.2.58-.29c.35.42.63.45,1.13.1l-2.09-.83c.31-.12.5-.18.68-.27s.46-.26.71-.35c.47-.2.94-.38,1.42-.54a4.41,4.41,0,0,1,2.36.1,17.09,17.09,0,0,0,1.89.22,11.21,11.21,0,0,1,2.87.55,3.51,3.51,0,0,0,.65.09c0-.75.57-.15.83-.36a1.84,1.84,0,0,1,1.08-.2l-1.17.47.08.16L182,99l.6.53.42-.34.23.38c.27-.46.65-.31,1.05-.21s1.09.2,1.64.3c.18,0,.34.1.59.17l-.35.27,0,.14a9.47,9.47,0,0,1,1.3-.09,7.23,7.23,0,0,1,1.13.3l-.06-.43c.43,0,.8,0,1.17,0,.71,0,1.4.36,2.13-.09.15-.08.51.2.86.34l.63-.51-.95-.72c-.08-.37.1-.68.59-.72s.9.58.85,1l.61.1-.07.62.53-.62.56,1.19.91-1.27,1,.17v.94l.12.15-.92.2.3.47-1-.58c.12.51-.13.61-.45.58a4.25,4.25,0,0,0-.93-.13l1.25.37-.92.42a1.31,1.31,0,0,0-.37.24c-.47.59-1.42.81-1.37,1.78a.58.58,0,0,0,.23.43c.47.11.5.43.47.85.61-.33,1,0,1.56.28a15.34,15.34,0,0,0,1.85.71c0,.39,0,1,.54,1.35.11.07.31.21.34.18s.35-.33.35-.49a5.29,5.29,0,0,0-.24-1c.32-.28.85-.51.91-.85s-.3-.76-.51-1.2c.52-.37,0-.94.06-1.51a3.84,3.84,0,0,1,2.81.71.74.74,0,0,0,.37,1,.6.6,0,0,0,.19.06c.68.17.75-.53,1-.93.29.43.6.78.85,1.18.14.24.08.64.26.81a7.29,7.29,0,0,0,1.2.74l-.32.21a2.24,2.24,0,0,1,.72.18.73.73,0,0,1,.3.5.56.56,0,0,1-.28.4,3.88,3.88,0,0,1-2.64.69c-.67-.15-1.12.45-1.58.89a8.58,8.58,0,0,1,.83-.35,2.11,2.11,0,0,1,.66-.05c.05,0,.14.29.11.33-.43.39-.28.71.12,1s.7.34,1.06-.18a.23.23,0,0,1,.2-.13l-.13.46.24-.14.09.15-1.94,1-.14,0,.4-.85a15.86,15.86,0,0,0-1.83.95c-.15.1-.08.52-.11.79l.16.08a4.88,4.88,0,0,1-.55.12c-.47,0-.74.13-.8.69,0,.31-.31.6-.52,1l-.21-.81a5,5,0,0,0,0,1c.22,1,.17,1.13-.68,1.61-.5.29-1.09,1.17-1,1.55s.31,1,.43,1.56a3.55,3.55,0,0,1-.05.86l-.27,0-.85-2.23-.48.21c-.42-.72-1-.26-1.56-.29l.23.52c-.49-.1-.88-.16-1.28-.26s-.51-.09-.69.22c-.09.15-.29.23-.43.35s-.32.24-.33.37c0,.94,0,1.88,0,2.82a1.63,1.63,0,0,0,.34.85c.19.23.53.53.76.5.42-.08,1,0,1.14-.67s.38-.86,1.22-.73l-.59,2.56a5.56,5.56,0,0,0,.82,0c.72-.09,1,.23.91.93s-.27,1.77.73,2.3c.81-.4.8-.39,1.46.29a3.17,3.17,0,0,0,.58.37c.19-1.13,1.14-1.42,2-1.93-.07.47-.35.9-.07,1.34l.43-1.13,1.19.57a2,2,0,0,0,1.24,0c.4-.08.61.35.9.55a1.86,1.86,0,0,1,.27.29,4.08,4.08,0,0,0,.55.55,2,2,0,0,0,.86.43c1.05.06,1.56.34,1.81,1.36a2,2,0,0,0,1.78,1.55c.37.09.54.2.47.55.85,0,1.71-.17,2.32.65.06.07.15.16.22.16a.94.94,0,0,1,.9,1v.07c0,.42-.4.88-.66,1.27s-.55.69-.82,1a.54.54,0,0,0,0,.22,19.51,19.51,0,0,1-.23,2,6,6,0,0,1-.64,1.36.56.56,0,0,1-.31.2c-.52.2-1.07.35-1.57.59a1.12,1.12,0,0,0-.65,1.07,4.66,4.66,0,0,1-.56,1.39c-.07.17-.16.33-.28.57l-.09-.54c-.55,1.09-1,2.3-2.53,1.28.19.35.34.58.46.82a.67.67,0,0,1-.23.91,1.17,1.17,0,0,1-.24.09c-.4.11-.83.16-1.26.24,0,.78-.12.92-1,.65.43,1-.12,1.61-.93,2.07a2.24,2.24,0,0,0,.37.32c.43.24.43.31,0,.65s-.67.5-.73.81a1.7,1.7,0,0,0,.28,1.16c.17.26.57.37.93.59a5.63,5.63,0,0,1-1.7.14,3.31,3.31,0,0,1-1.52-.91,2.46,2.46,0,0,1-.37-1.25c-.08-.44-.14-.89.42-1.13l-.42,0,.48-1.22h.11l.09.5h.07l.22-1.28c-.52-.06-.52-.37-.34-.74,0-.07.13-.15.11-.18-.36-.8.36-1.35.46-2s.14-1.33.23-2c.12-.85.27-1.7.37-2.58a4.14,4.14,0,0,0,0-1.49,1.38,1.38,0,0,0-.77-.85c-1.1-.39-1.4-1.39-1.83-2.26a6,6,0,0,0-1.12-2,.62.62,0,0,1,0-.87l0,0a1.92,1.92,0,0,0,.32-.43c-.4-.13-.51-.4-.32-.74a8.7,8.7,0,0,1,.86-1.31,1,1,0,0,0-.1-1.57,2.76,2.76,0,0,1-.47-.79l-.21-.4h-.17l-.31.79-.31-.23a1.05,1.05,0,0,0-.34-.2c-.24-.06-.48-.06-.47-.4a.05.05,0,0,0,0,0c-.56-.15-.61-.65-.8-1.08a1.54,1.54,0,0,0-1.15-.92,2,2,0,0,1-1.13-.85c-.24-.28-.47-.47-.85-.19a.68.68,0,0,1-.56,0c-.82-.47-1.63-1-2.41-1.48a.73.73,0,0,1-.29-.56,1.8,1.8,0,0,0-.42-1.49c-.4-.57-.85-1.12-1.2-1.7s-.55-1.07-.86-1.58c-.11-.18-.35-.28-.54-.43l-.16.12c.17.36.35.72.53,1.09l1,1.88c.07.14.16.26.22.4s.13.35.2.53l-.23.1a11.35,11.35,0,0,0-.76-1.47,3.12,3.12,0,0,0-.73-.62c0-.33.11-.59,0-.66a5.64,5.64,0,0,1-1-1.92c-.08-.15-.21-.36-.36-.4-.85-.21-1-1-1.33-1.61a3.56,3.56,0,0,1-.43-.82,5.35,5.35,0,0,1-.16-2.25A12.14,12.14,0,0,0,183.08,109.11Z" fill="#c1c1c1"/><path d="M233.44,144.54a.94.94,0,0,1-.53-1,1.86,1.86,0,0,0-.56-1.25,2.86,2.86,0,0,1-.7-1.95,4,4,0,0,0-.73-1.89,2.55,2.55,0,0,1,.22-2.63c.18-.37.34-.63.07-1a.51.51,0,0,1-.08-.32,3,3,0,0,0-.79-2.26,2,2,0,0,1-.43-2.2,1.12,1.12,0,0,0-.15-.8.69.69,0,0,0-.58-.21c-.42,0-.69,0-.85-.43s-.68-.32-1.05-.24-.73.27-1.1.39a3.08,3.08,0,0,1-.53.08,7.3,7.3,0,0,0-1.4.14.82.82,0,0,1-.85-.13,12,12,0,0,1-1.28-1.08,12.17,12.17,0,0,1-1-1.41c-.07-.09-.2-.15-.28-.25s-.21-.23-.21-.35a4.13,4.13,0,0,1,.14-1.71,1.77,1.77,0,0,0,0-1.3c-.36-.55,0-.88.19-1.27.27-.55.59-1.07.91-1.59a.58.58,0,0,1,.34-.23c.54-.17.91-.43.9-1.09a1.14,1.14,0,0,1,.63-1,4.27,4.27,0,0,0,.85-.9c.61.49,1.28.25,1.94,0a5.47,5.47,0,0,1,1.32-.35,17.69,17.69,0,0,1,1.92-.13,3.76,3.76,0,0,1,.74.1c-.13.38-.26.74-.4,1.17.3.56,1,.27,1.55.5.06,0,.19,0,.19,0,.13.65.79.49,1.17.77s.5.06.53-.31a.64.64,0,0,1,.63-.62.85.85,0,0,1,.32.09,14.86,14.86,0,0,0,1.7.59,1.92,1.92,0,0,0,.89-.06c.38-.11.66-.15.82.34a17.86,17.86,0,0,0,.78,1.94c.24.51.71,1,.76,1.48a9.88,9.88,0,0,0,.88,2.16,1.7,1.7,0,0,0,.39.57c.3.3.65.55.92.88.14.17.12.47.25.68a.47.47,0,0,0,.4.19c.73-.16,1.45-.36,2.26-.57a3.83,3.83,0,0,1-.21,1.07,9.08,9.08,0,0,1-2.18,3.13,12.58,12.58,0,0,0-1.94,2.56c-.06.08-.08.28,0,.31.39.32.14.74.21,1.11s.28.63.33,1a4.11,4.11,0,0,1,.08,1.48c-.07.32-.43.61-.7.85-.42.39-.85.74-1.27,1.12-.07.05-.05.23,0,.34s.14.39.2.58a.86.86,0,0,1-.48,1.11h0c-.18.09-.35.2-.43.24,0,.36.06.67-.06.85a4.82,4.82,0,0,1-2.51,2.46,9.93,9.93,0,0,1-1.53.16A2.66,2.66,0,0,0,233.44,144.54Z" fill="#c1c1c1"/><path d="M206.8,99.72l-.6-.48,1.33-.68V98l-1.11-.42,0-.17,1.16.16L206.7,97c-.54.32-.71.19-.73-.62h.38c-.24-.35-.44-.69-.69-1a2.5,2.5,0,0,0-2.76-1,1.54,1.54,0,0,1-.64.1c-.23,0-.64.21-.67-.34,0-.07-.43-.12-.69-.17v-.2l1.12-.06-1.9-.54a2.55,2.55,0,0,1,.43-.23c.55-.09,1.11-.14,1.66-.25.33-.06.74-.07.74-.61h-.8l0-.19,1.84-.48,0-.34s.08,0,.11,0c.53.19,1-.21,1.47-.22a1,1,0,0,1,.79.33c.14.12.43-.46.81-.13.07.06.25,0,.42,0l-.21-.37,1.92.49,0-.17a1.53,1.53,0,0,1-.47-.11.38.38,0,0,1-.22-.26c0-.07.15-.21.24-.22.48,0,1,0,1.46-.1a8.86,8.86,0,0,1,1-.12c1.35,0,2.7,0,4.05.11a9.54,9.54,0,0,1,1.8.47l-1.45.24v.23h.4a5.71,5.71,0,0,0,.71-.08l-.28.46a12.62,12.62,0,0,0,1.83-.37,2.49,2.49,0,0,1,2.05.13c-1.17.56-2.43.92-3.18,2a2.68,2.68,0,0,1,.8.06c.17.07.25.34.4.57l-.81,0c0,.33.8.55.16,1l.36.38-.83.12.38.43h-1.28c-.25.33-.2.59.28.78a.81.81,0,0,1,.56,1v0l-1.12-.46-.38.46,1.41.14A7.46,7.46,0,0,1,214,99.09c-.19,0-.42.24-.55.42a2,2,0,0,1-2,1c-.12,0-.39.29-.39.43a1.06,1.06,0,0,1-.53,1.1c-.06,0-.09.13-.11.21-.09.4-.21.81-.28,1.22s-.3.31-.55.2a7.71,7.71,0,0,1-1-.43,1.44,1.44,0,0,1-.53-.51c-.46-.86-.89-1.71-1.3-2.56A1.2,1.2,0,0,1,206.8,99.72Z" fill="#c1c1c1"/><path d="M277,136.28a2.32,2.32,0,0,1,.5.49,1.49,1.49,0,0,1,.27.76c0,.63.43.86.8,1.17a1.07,1.07,0,0,1,.19.18,2,2,0,0,0,.62.79,3.35,3.35,0,0,1,.92,1.45,2.67,2.67,0,0,1-.24,2.35,6.53,6.53,0,0,0-.89,2,3,3,0,0,1-1.56.49l-.29-.16a1.19,1.19,0,0,1-1.65-.39,1.15,1.15,0,0,1-.12-.25,4.28,4.28,0,0,0-.56-.78l-.2.14.16-.83-.76.86c-.23-.39-.37-.86-.68-1.06a2.21,2.21,0,0,0-1.31-.27,5.08,5.08,0,0,0-1.79.49,2.17,2.17,0,0,1-1.32.43,1.77,1.77,0,0,0-1,.33.76.76,0,0,1-1-.11.65.65,0,0,1-.09-.43c0-.24.15-.51.1-.73a13.82,13.82,0,0,0-.49-1.41c-.09-.24-.27-.48,0-.74,0,0-.08-.22-.1-.34,0-.39-.23-.89-.05-1.14s.75-.45,1.14-.68c.56-.32,1.45-.08,1.7-.93,0-.13,0-.26.08-.38l.22-.3.2.16a9.12,9.12,0,0,1,.92-1c.38-.34.61-.13.75.46a9,9,0,0,1,.64-.85,5.71,5.71,0,0,1,.72-.49,2,2,0,0,0,.24-.26l1.46.35h0c-.56.86-.56.86.29,1.49l.48.33.61.38.26-1.46c.08-.45.15-.93.22-1.4h.19Z" fill="#c1c1c1"/><path d="M199.22,98.62c.06-.64-.55-.62-.85-.93-.15.34-.24.7-.66.32-.08-.07-.28,0-.42,0-.69-.07-1.37-.14-2-.24-.14,0-.25-.15-.43-.25l.61-.2c-.58-.11-1.07-.14-.82-.79a1.18,1.18,0,0,1,1.48-.74c-.12.26-.35.54-.33.78s.29.51.47.74c-.18-1.18-.09-1.39.76-1.5.42-.06.63.19.67.92a2,2,0,0,1,2.26.15,1.49,1.49,0,0,0,.56.14h.17a8.53,8.53,0,0,1,1.11.6,5.35,5.35,0,0,1,.7.8l-.5.09-.07.13,2.25,1.21-.85,1.08-1.12-1-.22.53c.43.39,1.21.68,1,1.66l-.64-.06.28.66c-.79-.33-1.57-.35-2.07-1.06a1.19,1.19,0,0,0-1.28-.42,1.93,1.93,0,0,1-.63-.1c0-.18.06-.35.11-.52a.84.84,0,0,1,.12-.31,1,1,0,0,1,.36-.33c.06,0,.2.12.3.19l-.37.48.81-.09v-.14l-.27-.09c.13-.43.93-.46.65-1.08A1,1,0,0,0,199.22,98.62Z" fill="#c1c1c1"/><path d="M195.62,91.64c-.52.3-1-.21-1.57-.63a16,16,0,0,1,2.4-.24,7.09,7.09,0,0,0,2.13-.39,5.78,5.78,0,0,1,1.61,0c1,0,2,.06,3,.13a4.14,4.14,0,0,1,.9.3c-.21.11-.39.22-.57.3-.85.37-1.72.74-2.61,1.09a2.21,2.21,0,0,1-.57.17,1,1,0,0,0-.93.89l-1.23.51.53.31c-.46.07-.82.49-1.25,0,0,0-.21,0-.32,0a5.54,5.54,0,0,1-2.56-.1l.85-.25-.1-.28.77.06.05-.13-.67-.32c.4-.62,1-.09,1.46-.22l-1.2-.72.15-.12c.72.28,1.38-.15,2.13-.16C197.29,91.36,196.48,92,195.62,91.64Z" fill="#c1c1c1"/><path d="M185.49,97.82l1.55-.1v-.1c-.32,0-.64-.07-1-.08s-.63,0-.94,0v-.18l.64-.24-.88-.22c.3-.71.93-.8,1.63-.9l0,.38h.18c.29-.28.54-.18.81.05s.38-.42.65-.08a2.39,2.39,0,0,0,.55.55l-.2-.89h.81a4.84,4.84,0,0,0,.57,1.27c.26.32.73.46,1.07.79l-.52.05.23.42a2.78,2.78,0,0,1-.91,0,3,3,0,0,0-1.93.2c-.35.1-.85.29-1.12-.28,0-.08-.23-.08-.34-.11l-.9-.26Z" fill="#c1c1c1"/><path d="M278.47,133.3l-.43.3,1.28,1.34a1.77,1.77,0,0,1-1.43-.79.56.56,0,0,0-.72-.3.58.58,0,0,0-.32.35.47.47,0,0,1-.6.28.59.59,0,0,1-.17-.1c-.34-.4-.71-.39-1.27-.21l.46-.64a1.07,1.07,0,0,0-.82-.85,8.6,8.6,0,0,1-1.19-.37c-.12-.05-.19-.24-.3-.38l.42-.2-1.07-.51A5.17,5.17,0,0,1,273,131a.49.49,0,0,1,.62.31s0,.06,0,.08a6.18,6.18,0,0,0,.26.76l.18,0a1.56,1.56,0,0,1,.27-.35c.33-.29.61-.55,1.13-.15s1,.29,1.5.54A12.34,12.34,0,0,1,278.47,133.3Z" fill="#c1c1c1"/><path d="M264.89,130l.53.18,2.26-2.13.67.67c-.66.63-.69,1.06-.07,1.71a2.11,2.11,0,0,0-.85,2l-2.14-.42C265.2,131.32,264.62,130.77,264.89,130Z" fill="#c1c1c1"/><path d="M242.07,137.14c1.12.05,1.18-1,1.8-1.43a1,1,0,0,1,.18,1.27.71.71,0,0,0-.06.26c-.3,1.07-.58,2.13-.91,3.2a.62.62,0,0,1-.79.39.71.71,0,0,1-.22-.13,1.54,1.54,0,0,1-.19-1.52,3,3,0,0,0,.18-1C242.09,137.84,242.07,137.51,242.07,137.14Z" fill="#c1c1c1"/><path d="M225.38,105.32l-.46-.14v-.67c0-.08.12-.21.14-.2.28.12.42-.08.39-.27s-.31-.28-.48-.42-.11,0-.2,0l.07-.35c-.49-.46-.68-.8-.55-1,.28-.4.9-.64,1.17-.47s.42.5.12,1.08l1.21,1.67a.59.59,0,0,1,.3.14c0,.06-.09.26-.14.39l-.18.52-2.22.35Z" fill="#c1c1c1"/><path d="M263.68,133.09l-.63-.05c-.48-.69-1-1.48-1.57-2.25s-1-1.46-1.62-2.26c1.15.13,1.59,1,2.31,1.56a4.39,4.39,0,0,1,1.16,1.44c.09.14.35.18.5.26l-.16,1.32Z" fill="#c1c1c1"/><path d="M246.78,95.81a2.82,2.82,0,0,1-2.26-.62,12.36,12.36,0,0,0,1.33-1.28,3,3,0,0,1,1.76-.85,20.41,20.41,0,0,1,2.06-.29c.31-.07.62-.16.93-.26l.09.21a1.47,1.47,0,0,1-.49.27,14,14,0,0,0-1.91.38,5,5,0,0,0-2.13,1.46c-.08.1,0,.42.09.55A2.18,2.18,0,0,0,246.78,95.81Z" fill="#c1c1c1"/><path d="M217.34,101.51l-.79-.23.71-.37h-.79l-.08-.1.74-.43-.06-.18.42.55,1.71-.43,0-.18a4.17,4.17,0,0,1,.8.77c.24.43-.25.55-.47.73a2.73,2.73,0,0,1-1,.45,1.47,1.47,0,0,1-.66,0,9.16,9.16,0,0,1-1-.3Z" fill="#c1c1c1"/><path d="M273.93,113.61l-1.36.33c.41-.67.63-.77,1.65-.77.08-.15.18-.3.25-.46a2.53,2.53,0,0,0,.12-.3c.22,0,.48,0,.51,0,.2-.42.36-.85.52-1.28.11-.27,0-.69.52-.67a1.25,1.25,0,0,1,0,1.43,1.88,1.88,0,0,0-.17,1.07c.06.59-.46.59-.71.66-.46.12-.85.24-1,.77l-.17,0Z" fill="#c1c1c1"/><path d="M183,95.28a8.52,8.52,0,0,1,3,.47l-1.39.85c-.41.26-.71.51-1,.71l-1-.63C182.79,96.31,183.35,96,183,95.28Z" fill="#c1c1c1"/><path d="M193.32,92.81l.3-.26-1.2-.23c.23-.61.51-.95,1.09-.85a2.23,2.23,0,0,1,.43.16,1.52,1.52,0,0,0,.51.12c.24.24.43.59.81.27l.52.42C195.18,93.27,194.44,93.39,193.32,92.81Z" fill="#c1c1c1"/><path d="M230.41,91.24l1.8.15L232,91l3,1.21v.2H234c-.07-.15-.09-.32-.18-.38a.42.42,0,0,0-.38,0c-.32.21-.62.47-1,.76l-.86-.22.37-.19-.54,0,0-.1.69-.24v-.14a2.7,2.7,0,0,1-.89.12,2.91,2.91,0,0,1-.78-.53Z" fill="#c1c1c1"/><path d="M193.72,94.16l.42-.11v.29c1.24.86,2.61,0,3.91.43a.83.83,0,0,1-1.05.52l-.09,0a2.27,2.27,0,0,0-.52,0,21.71,21.71,0,0,1-2.28-.08c-.12,0-.26-.25-.33-.42A2.69,2.69,0,0,1,193.72,94.16Z" fill="#c1c1c1"/><path d="M185.94,94.65l-.17,0h-.15c-.05,0,0-.08,0-.1.55-.7,1.14-.28,1.71-.08.25.09.49.18.85.33l-.3-.68.35-.24c.06,0,.11.07.13.11.12.3.21.63.67.39.06,0,.3.1.33.19a.41.41,0,0,1-.18.34c-.85.16-1.7.29-2.55.43,0,0-.08-.06-.19-.16l.85-.22v-.13l-1.9.16,0-.09.57-.21Z" fill="#c1c1c1"/><path d="M284.91,148.92l2.35-2a1,1,0,0,1,.28.17c.08.07.17.26.14.29-.25.27-.26.75-.72.85a.51.51,0,0,0-.26.19C286,149.29,286,149.29,284.91,148.92Z" fill="#c1c1c1"/><path d="M269.27,131.55l.43.9-.36.27-.43-.85c0,.93,0,1-.32,1.19-.07-.34-.15-.68-.22-1l-.12,0c.18-.59.36-1.17.54-1.78.55-.08,1.19.53,1.7-.27-.18.59-.24.63-.71.6a2.49,2.49,0,0,0-.77,0c-.5.17-.17.43-.07.65l.9-.3.05.12Z" fill="#c1c1c1"/><path d="M223,105v-.85a7.44,7.44,0,0,0,.56-.54c.3-.34.6-.11.86,0s.21.34-.05.5c0,0-.06.11-.06.18s.06.55,0,.6a5.37,5.37,0,0,1-1.16.42c-.08,0-.19-.14-.29-.22Z" fill="#c1c1c1"/><path d="M192.24,95.81l-.37.3.54.24c.16.57-.43.55-.66.78,0,0-.3-.17-.46-.26l-.94-.54,0-.17.82.14-.43-.45A1.07,1.07,0,0,1,192.24,95.81Z" fill="#c1c1c1"/><path d="M277.15,106.4l-.47,0c.05.48.1.95.15,1.38h-.46c.3-1.27-.4-2.64.33-4.06C276.86,104.7,277,105.55,277.15,106.4Z" fill="#c1c1c1"/><path d="M263.67,133.11a6.27,6.27,0,0,0,1,.25c.53.06,1.06.06,1.6.09a.55.55,0,0,1,.37.1l-.32.17.83.33v.13a8.22,8.22,0,0,1-1.24-.09,13.65,13.65,0,0,1-1.9-.4.43.43,0,0,1-.32-.51.36.36,0,0,1,0-.09Z" fill="#c1c1c1"/><path d="M276.06,109.77l-.25.55c-.22-.69-.12-.92.35-.93l.16-1.17c.43.25.53.94,1.18.72l.1.49-.9.52Z" fill="#c1c1c1"/><path d="M275.81,93.71a6.13,6.13,0,0,1-.85-.09c-.09,0-.23-.21-.21-.29s.17-.21.28-.28a.28.28,0,0,1,.22,0,6.38,6.38,0,0,0,1.9,0c.12,0,.24.16.35.24-.1.09-.19.26-.31.28C276.73,93.64,276.28,93.67,275.81,93.71Z" fill="#c1c1c1"/><path d="M289.26,145.68a2.49,2.49,0,0,1-.22.43c-.26.36-.54.71-.82,1a.09.09,0,0,1-.13,0,.11.11,0,0,1,0-.08l-.4-.78.36-.94c.36-.17.63.87,1.2.15Z" fill="#c1c1c1"/><path d="M190.6,94.47l0-.34.64.34-.15-.37a3.22,3.22,0,0,1,.76,0c.09,0,.2.29.18.43s-.14.5-.27.52-.42-.13-.63-.2-.31-.07-.46-.11a2.44,2.44,0,0,1-.46-.14,4.25,4.25,0,0,1-.43-.31c.07-.08.17-.22.19-.21a2.94,2.94,0,0,1,.47.31.62.62,0,0,1,.09.12Z" fill="#c1c1c1"/><path d="M196.68,122.28a1.37,1.37,0,0,1,1.71-.57c.67.34,1.32.72,2.07,1.12l-1,.12c-.22-.27-.36-.54-.58-.66a3.86,3.86,0,0,0-1.28-.42C197.31,121.85,197,122.12,196.68,122.28Z" fill="#c1c1c1"/><path d="M268.77,123.36c.76.23.89.57.6,1s-.18.64.35.75a3.71,3.71,0,0,1,.47.16l-.18.39c-.35-.33-.93-.26-1.28-.72S269.15,124,268.77,123.36Z" fill="#c1c1c1"/><path d="M194.38,95.66a.72.72,0,0,1-.79.67h0c-.07,0-.2,0-.21.06-.06.43-.38.28-.47.11s-.2-.62-.07-.77a1.26,1.26,0,0,1,.8-.22A3.12,3.12,0,0,1,194.38,95.66Z" fill="#c1c1c1"/><path d="M270.59,128.05l.08.4-.16.09-.6-.78-.46.09-.07-.12,1.44-.81.1,1.13Z" fill="#c1c1c1"/><path d="M260.88,90.88l-2.38.55c0-.15,0-.36.08-.42A2,2,0,0,1,260.88,90.88Z" fill="#c1c1c1"/><path d="M183.67,94.3a8,8,0,0,1,1.13-.58,6.75,6.75,0,0,1,1.18-.19l.09.19a5.71,5.71,0,0,1-.58.51,2.55,2.55,0,0,1-.3-.22C184.81,94.47,183.86,94.65,183.67,94.3Z" fill="#c1c1c1"/><path d="M200.36,123.41l.85.07-.42-.49c.81-.21,1.7.1,1.66.6C201.74,123.53,201,123.88,200.36,123.41Z" fill="#c1c1c1"/><path d="M197.9,102.07c-.3,0-.57.11-.67,0-.31-.26-.5,0-.77,0a3,3,0,0,1-.85,0c.58-.91.73-1,1.45-.56l.14.08Z" fill="#c1c1c1"/><path d="M261.67,91.06l-.16.55c-1.15.18-1.47.14-2.05-.36Z" fill="#c1c1c1"/><path d="M236,91.33a13.25,13.25,0,0,1-1.67.08A4.26,4.26,0,0,1,233.1,91H236Z" fill="#c1c1c1"/><path d="M191.5,93.39,189.63,93l.42-.18-.61-.17v-.18a6.39,6.39,0,0,1,.75.09,3.37,3.37,0,0,1,.72.23,5.1,5.1,0,0,1,.67.43Z" fill="#c1c1c1"/><path d="M263.56,92l-2.09.17-.09-.09c.34-.2.67-.53,1-.56a3.49,3.49,0,0,1,1.19.31Z" fill="#c1c1c1"/><path d="M254.74,126.86a6.7,6.7,0,0,1,.57,1c0,.11-.18.43-.34.48-.31.12-.43-.09-.4-.39s0-.68,0-1Z" fill="#c1c1c1"/><path d="M277.94,148.12l-.55-1.2a5.24,5.24,0,0,1,1,0c.1,0,.24.35.19.45A4,4,0,0,1,277.94,148.12Z" fill="#c1c1c1"/><path d="M272.34,114c.61.49.57,1.08-.08,1.44l0-.85-.25-.15Z" fill="#c1c1c1"/><path d="M229.49,110.59l.36-.15c0,.11.13.23.1.29-.12.27.17.78-.46.81Z" fill="#c1c1c1"/><path d="M231.77,112.67l-.92-.56,0-.12h1Z" fill="#c1c1c1"/><path d="M197.63,95.69,199,96l-.06.22C198.53,96,197.93,96.64,197.63,95.69Z" fill="#c1c1c1"/><path d="M191.72,92.73c.45.09.75.14,1.06.22a.2.2,0,0,1,.08.17.33.33,0,0,1-.17.18C192.27,93.43,192,93.27,191.72,92.73Z" fill="#c1c1c1"/><path d="M269.43,120.74l-.45,1.35C268.6,121.49,268.7,121.14,269.43,120.74Z" fill="#c1c1c1"/><path d="M278.75,132.93a2.06,2.06,0,0,0,.7,0c.18-.08.31-.31.59-.42a2.48,2.48,0,0,1-.3.49.62.62,0,0,1-.87.07A.41.41,0,0,1,278.75,132.93Z" fill="#c1c1c1"/><path d="M192.37,94.9l.91-.3.08.57a5.23,5.23,0,0,1-.56,0,3,3,0,0,1-.42-.14Z" fill="#c1c1c1"/><path d="M271.18,134.1l-1.41,1A1.26,1.26,0,0,1,271.18,134.1Z" fill="#c1c1c1"/><path d="M192,99.23l.78.46,0,.12-1.24-.11Z" fill="#c1c1c1"/><path d="M192.31,93.84l1.13.1c-.42.51-.77.19-1.14,0Z" fill="#c1c1c1"/><path d="M186.74,93.38l1.14-.19C187.68,93.73,187.29,93.81,186.74,93.38Z" fill="#c1c1c1"/><path d="M273.69,113.78c.32.74-.54.43-.54.82C272.85,114,273.45,114.07,273.69,113.78Z" fill="#c1c1c1"/><path d="M272.49,132.2h-1.08c0-.11.09-.31.14-.31C271.91,131.86,272.3,131.79,272.49,132.2Z" fill="#c1c1c1"/></g><circle cx="170.69" cy="105.67" r="1.62" fill="#24285b"/><circle cx="208.03" cy="97.99" r="1.62" fill="#24285b"/><circle cx="242.99" cy="109.27" r="1.62" fill="#24285b"/><circle cx="263.9" cy="132.73" r="1.62" fill="#24285b"/><circle cx="192.89" cy="111.77" r="1.62" fill="#24285b"/><circle cx="273.47" cy="100.14" r="1.62" fill="#24285b"/><path d="M172.31,102.13s.05-.17.16-.47" fill="none" stroke="#24285b" stroke-linecap="round" stroke-linejoin="round" stroke-width="0.25"/><path d="M175,97.34a18.36,18.36,0,0,1,8.7-6c9.18-3.06,27.36-2.31,23.86,6.62S193.28,109,192.89,112.33,190,123.78,200.79,123s16.84-16.68,42.2-13.72c17.89,2.09,25.71-3.32,28.76-6.68" fill="none" stroke="#24285b" stroke-linecap="round" stroke-linejoin="round" stroke-width="0.25" stroke-dasharray="1 5.01"/><path d="M273.24,100.58c.16-.28.23-.44.23-.44s.14.11.37.33" fill="none" stroke="#24285b" stroke-linecap="round" stroke-linejoin="round" stroke-width="0.25"/><path d="M276.63,104.52a16.14,16.14,0,0,1,1.35,7c-.15,6.86-2.28,13.52-8.23,17.38" fill="none" stroke="#24285b" stroke-linecap="round" stroke-linejoin="round" stroke-width="0.25" stroke-dasharray="0.99 4.95"/><path d="M267.57,130.12l-.45.2" fill="none" stroke="#24285b" stroke-linecap="round" stroke-linejoin="round" stroke-width="0.25"/><circle cx="311.78" cy="67.37" r="26.51" fill="#24285b"/><rect x="225.15" y="235.34" width="95.19" height="19.89" fill="#e6e6e6"/><path d="M302.88,225.21s-8.32-2.27-10.13-10c0,0,12.89-2.61,13.25,10.7Z" fill="#68e1fd" opacity="0.58" class="target-color"/><path d="M303.9,224.39s-5.81-9.19-.7-17.78c0,0,9.8,6.22,5.44,17.8Z" fill="#68e1fd" opacity="0.73" class="target-color"/><path d="M305.39,224.39s3.07-9.7,12.36-11.54c0,0,1.74,6.3-6,11.57Z" fill="#68e1fd" class="target-color"/><polygon points="299.36 224.18 301.05 235.71 311.67 235.76 313.23 224.23 299.36 224.18" fill="#24285b"/><rect x="241.37" y="229.97" width="43.54" height="5.79" fill="#c1c1c1"/><rect x="245.28" y="224.18" width="43.54" height="5.79" fill="#c1c1c1" opacity="0.55"/><path d="M321.46,63.86a9.69,9.69,0,1,0-18,5h0l8.28,13.55L320,69h0A9.63,9.63,0,0,0,321.46,63.86ZM311.78,69a4.74,4.74,0,1,1,4.73-4.74A4.74,4.74,0,0,1,311.78,69Z" fill="#ffd200"/></svg>