<svg xmlns="http://www.w3.org/2000/svg" xmlns:xlink="http://www.w3.org/1999/xlink" viewBox="0 0 400 300" data-imageid="jogging-7" imageName="Travel plans" class="illustrations_image" style="width: 241px;"><defs><linearGradient id="linear-gradient" x1="273.5" y1="149.09" x2="230.71" y2="189.78" gradientUnits="userSpaceOnUse"><stop offset="0" stop-color="#00a99d"/><stop offset="1" stop-color="#fff"/></linearGradient><linearGradient id="linear-gradient-2" x1="215.65" y1="216.9" x2="168.87" y2="261.38" xlink:href="#linear-gradient"/><linearGradient id="linear-gradient-3" x1="134.85" y1="154.23" x2="92.6" y2="194.41" xlink:href="#linear-gradient"/><linearGradient id="linear-gradient-4" x1="343.41" y1="188.97" x2="322.14" y2="209.19" xlink:href="#linear-gradient"/></defs><title>PP_</title><g style="isolation:isolate"><g id="Layer_2" data-name="Layer 2"><path d="M199.09,288.42l-165.77-98c-5.28-3-9.8-7.83-4.66-11L195,83.55c2.5-1.55,6.29-2.56,8.82-1.09l174,101c5.28,3.06,6.22,11.63.94,14.69L220.94,288.26A22,22,0,0,1,199.09,288.42Z" fill="#8dd89b"/><path d="M280.66,169.84l-21-12.7L203,188.59c3.25,1.66,21,11.5,25.56,14.17C225.76,203.75,280.66,169.84,280.66,169.84Z" opacity="0.68" fill="url(#linear-gradient)" style="mix-blend-mode:multiply"/><path d="M177,266.46c16.73-10.59,45.22-28.18,45.22-28.18l-22.91-13.89-49.43,27.4C158.81,256.91,168.08,261.39,177,266.46Z" opacity="0.68" fill="url(#linear-gradient-2)" style="mix-blend-mode:multiply"/><path d="M135.33,172.82l-7.11-12.5L69.29,197.52c3.25,1.66,9.35,5.54,13.91,8.21C80.43,206.72,135.33,172.82,135.33,172.82Z" opacity="0.68" fill="url(#linear-gradient-3)" style="mix-blend-mode:multiply"/><path d="M222.8,231.22c-2.24,1.48-3.91,2.34-3.91,2.34-1.78,0-5.09.39-4.07-1.94a21.63,21.63,0,0,1-4.37,5.16c-1.93,1.66-12.76,3.21-9,9.65,1.92,3.32,20.7-6.19,21.17-8.45A36.84,36.84,0,0,0,222.8,231.22Z" fill="#8c6864"/><path d="M214.69,220.27A37.3,37.3,0,0,1,215,230c-.1.7-.2,1.46-.34,2.21l8.24-1.39V220.27Z" fill="#f7931e"/><path d="M222.8,228.95c-2.24,1.48-3.91,2.34-3.91,2.34-1.78,0-5.09.39-4.07-1.94a21.63,21.63,0,0,1-4.37,5.16c-1.93,1.66-12.8,7-8.26,9.83,3.37,2.1,19.93-6.38,20.39-8.63A36.84,36.84,0,0,0,222.8,228.95Z" fill="#56403d"/><path d="M219.31,231.43c.08-.6,1.28-3.61.3-4.3s-5.13-1.73-5.54-.55,0,5.26,0,5.26" fill="#56403d"/><path d="M207.3,224c-2.24,1.48-3.91,2.34-3.91,2.34-1.78,0-5.09.39-4.07-1.94a21.63,21.63,0,0,1-4.37,5.16c-1.93,1.66-12.76,3.21-9,9.65,1.92,3.32,20.7-6.19,21.17-8.45A36.84,36.84,0,0,0,207.3,224Z" fill="#8c6864"/><path d="M199.18,213a37.3,37.3,0,0,1,.28,9.73c-.1.7-.2,1.46-.34,2.21l8.24-1.39V213Z" fill="#f7931e"/><path d="M207.3,221.71c-2.24,1.48-3.91,2.34-3.91,2.34-1.78,0-5.09.39-4.07-1.94a21.63,21.63,0,0,1-4.37,5.16c-1.93,1.66-12.8,7-8.26,9.83,3.37,2.1,19.93-6.38,20.39-8.63A36.84,36.84,0,0,0,207.3,221.71Z" fill="#56403d"/><path d="M203.8,224.19c.08-.6,1.28-3.61.3-4.3s-5.13-1.73-5.54-.55,0,5.26,0,5.26" fill="#56403d"/><path d="M147.18,65.83a2.28,2.28,0,0,1,.12-1.82,1.91,1.91,0,0,1,2.16-.93,1.39,1.39,0,0,1,0-.15,3.12,3.12,0,0,1,.11-.73,2.35,2.35,0,0,1,.78-1.19,2,2,0,0,1,.45-.26c-.74-.93-1.47-1.87-2.12-2.85-.54-.83-1.33-2.72-.06-3.31S151,56,151.67,56.8q1.78,2.06,3.52,4.16a3.51,3.51,0,0,1,3.53.75,58,58,0,0,1,5.49,5.6,1,1,0,0,1,0,1.24,1,1,0,0,1,.11.67c-.08.43-.17.85-.28,1.27a16.36,16.36,0,0,1-.59,2.06,1,1,0,0,1-1.08.65.86.86,0,0,1-.86,1.22c-2.91-.27-5.8-.65-8.68-1.14-2.27-.39-4.85-.91-5.54-3.45a1,1,0,0,1,0-.47,2.64,2.64,0,0,1-.84-1.4A2.26,2.26,0,0,1,147.18,65.83Z" fill="#f7931e"/><path d="M150,62.94a12.54,12.54,0,0,1,2.82,1.26,10,10,0,0,1,2-3.35c.31-.35.82.17.51.51-.94,1-2.27,2.87-2.21,4.37.07,1.77,1.73,1.88,2.71.64.52-.65.95-1.41,1.41-2.1.26-.38.88,0,.62.36l-1.41,2.1a3,3,0,0,1-1.09,1.2,2.62,2.62,0,0,1-2.52-.62,2.35,2.35,0,0,1-.28-2.43l-.09,0a11.75,11.75,0,0,0-2.69-1.21C149.39,63.5,149.58,62.8,150,62.94Z" fill="#42210b"/><path d="M151.83,67.25a5.38,5.38,0,0,0-1.83-.68L148,66a.36.36,0,0,1,.19-.69,32.41,32.41,0,0,1,3.52,1.07A1.86,1.86,0,0,1,153,68a1.17,1.17,0,0,1-.75,1.13,1.84,1.84,0,0,1,.58,1.32,1.12,1.12,0,0,1-.83,1,.36.36,0,0,1-.19-.69c.67-.17.08-1-.17-1.26a.34.34,0,0,1-.1-.23,10.12,10.12,0,0,1-3.32-.44.36.36,0,0,1,.19-.69,10.83,10.83,0,0,0,2.16.38,5.9,5.9,0,0,0,.89,0C152.3,68.5,152.42,67.73,151.83,67.25Z" fill="#42210b"/><path d="M193.68,117.3s-2.58,70,2.52,99.45c0,0,1,3.28,13.18,1.37l.82,6.13s8.55,2.61,16.63-1.16c0,0,3.38-68-6.76-107.53" fill="#311e69"/><path d="M161.59,75.14,164.87,63S182.2,81.7,203.28,78.89c3,.31,6.1.4,9.06.93a13.47,13.47,0,0,1,4.24,1.54c4.16,5.84,5.61,13.11,6,20.18.24,3.9.22,7.83.2,11.73a58,58,0,0,1-.42,7.43,1.92,1.92,0,0,1-.94,1.4,10.75,10.75,0,0,1-4.85,1.51c-7.34.3-16.22,0-21.95-4.77a17.23,17.23,0,0,1-1-1.56l.94-21.55S170.73,88.26,161.59,75.14Z" fill="#ffc200"/><path d="M200.36,94.67s.5-3.78,0-4.24-10.42-5.14-11.28-4.77-.62,4.5-.62,4.5-2.32.65-2.32,1.56v4.56a5.77,5.77,0,0,0,2.66.51,26.43,26.43,0,0,0,.29,3.57l8.75,1.79" fill="#42210b"/><path d="M212.34,79.82s10.13,1.09,13.47,12.9c3.91,13.84,1.34,17-3,20.55" fill="#ffc200"/><path d="M200.09,67.73s-3.23,11.78,2.1,14.37,9.07-1.26,10.69-4.78,1-11.76-5.88-12.6C201,64,200.09,67.73,200.09,67.73Z" fill="#f7931e"/><path d="M198.69,65.61A2.12,2.12,0,0,0,199.82,69a3.09,3.09,0,0,0,2.57-.52c.87-.61,1.65-1.61,2.84-1.15A1.7,1.7,0,0,1,206.29,69a5.37,5.37,0,0,0-.17,1.4,1.44,1.44,0,0,0,1.58,1c1.12,0,2-.52,3,.35a2.16,2.16,0,0,1,.4,2.71,3.09,3.09,0,0,0-.46.62c-.18.32.18.55.47.46a.38.38,0,0,0,.21-.12,3,3,0,0,0,.4-.54.91.91,0,0,1,.82-.22c.76.2.45,1,.05,1.4a3,3,0,0,1-2.46.85.38.38,0,0,0-.31.63.34.34,0,0,0-.1.31,3.77,3.77,0,0,1-.36,2.29.39.39,0,0,0,.13.55.31.31,0,0,0,.4.33,10,10,0,0,0,3.8-1.93,16.16,16.16,0,0,0,5.06-8.67c.72-3.22-.18-8-4.37-8a1.37,1.37,0,0,1-.5-.06,1.18,1.18,0,0,1-.32-.22,8.3,8.3,0,0,0-7.78-1.68,5.25,5.25,0,0,0-2,1,3.68,3.68,0,0,0-3.8-.69c-1.69.8-1.46,3.37-.89,4.8A.37.37,0,0,0,198.69,65.61Zm6.65,1,.12-.05.07,0a1,1,0,0,0,.21.13,1.19,1.19,0,0,1,.55.47A2.46,2.46,0,0,0,205.34,66.6Zm-5.88-2.34a3.39,3.39,0,0,0,.15.39l-.05,0C199.52,64.54,199.49,64.4,199.46,64.26Z" fill="#935542"/><path d="M204.86,139.78q.91,32.58,3.3,65.09.67,9.13,1.46,18.26c0,.52-.77.52-.81,0q-2.8-32.47-4.13-65-.37-9.15-.63-18.3A.41.41,0,0,1,204.86,139.78Z" fill="#fff"/><path d="M190.65,92.85a2,2,0,0,1-.94-2.12c.22-1.51,2.27-.78,2.27-.78s.16-2.08,1.68-2.14,6.71,3.41,6.71,3.41l-.1-2.44c.06-.43.33-.52.83-.37,1.38.42,1.61,2.47,1.68,3.68a3.64,3.64,0,0,1-.15,1.35c-.11.33-.42.75-.18,1.09a17.68,17.68,0,0,0,3.15,1.5l-.3.57q-.43.51-.84,1a18.93,18.93,0,0,0-3,4.27l-2.53-1s-8.88-1.46-9.29-2.55a4,4,0,0,1,0-2.33l-.51-1.32C188.65,93.41,190.65,92.85,190.65,92.85Z" fill="#f7931e"/><path d="M198.83,92.46A46.1,46.1,0,0,1,192,89.63c-.23-.12-.37.25-.15.37a46.1,46.1,0,0,0,6.85,2.84C198.93,92.91,199.08,92.54,198.83,92.46Z" fill="#42210b"/><path d="M198.2,95a35.07,35.07,0,0,1-7.9-2.2.2.2,0,0,0-.15.37,35.54,35.54,0,0,0,8,2.23C198.41,95.48,198.45,95.09,198.2,95Z" fill="#42210b"/><path d="M196.81,97.48a40.74,40.74,0,0,1-7.16-1.54.2.2,0,0,0-.15.37,41.18,41.18,0,0,0,7.27,1.56C197,97.92,197.06,97.53,196.81,97.48Z" fill="#42210b"/><path d="M199.9,104.81l-.73-.65a49,49,0,0,1,6.66-9.49c.41-.46,1.08.22.67.67A48,48,0,0,0,199.9,104.81Z" fill="#311e69"/><path d="M207.57,95q4.13,3.17,8.4,6.15a36.56,36.56,0,0,0-.92-5.29.48.48,0,0,1,.92-.25,38,38,0,0,1,1,6.23l1.79,1.23c.5.34,0,1.16-.48.82q-5.72-3.87-11.19-8.07C206.62,95.41,207.09,94.58,207.57,95Z" fill="#311e69"/><path d="M199.18,104.16s10.83,15.24,23.66,9.11l-.17,5.08S206.37,118.7,199.18,104.16Z" fill="#311e69"/><path d="M226.18,72.61s-1.82,3.31-14.44-.4-20.91-11-19.84-13.37S228.79,66.51,226.18,72.61Z" fill="#ffc200"/><path d="M202,64.23s-.14-9.55,9.94-6.65c6.26,1.81,8.7,4.67,5.43,14.4" fill="#ffc200"/><path d="M213.62,81.38a4.68,4.68,0,0,0,.69-1.38,21.37,21.37,0,0,1,2.27,1.3v.06l-8.48,15.19-1-.77-1.5.26S211.87,83.93,213.62,81.38Z" fill="#42210b"/><path d="M200.81,81l-1.63,9.42-2.84-1.65,2-9.63h1.39A8.74,8.74,0,0,0,200.81,81Z" fill="#42210b"/><path d="M346.21,199.52l-4.37-5.62-33.25,15c3.25,1.66,8,4.52,12.53,7.18C330.13,211.42,337.89,205.27,346.21,199.52Z" opacity="0.68" fill="url(#linear-gradient-4)" style="mix-blend-mode:multiply"/><rect x="338.33" y="145.84" width="8.2" height="54.33" rx="2.01" ry="2.01" fill="#bc532a"/><path d="M362.66,157c-1.89-8.2-10.28-44.32-25.16-33.7-7.62,5.44-9.77,13.94-12.82,22.26-2.53,6.89-4.62,14.13-4.74,21.52-.24,15,15,16.87,26.75,16.81,6.75,0,16.37-4,17.94-11.34,1-4.42-.67-9.63-1.61-14Q362.84,157.76,362.66,157Z" fill="#2c9135"/><path d="M363.37,158.55q-.17-.8-.36-1.6c-1.67-7.25-8.43-36.33-20.26-35.62,3.51,15.33,8.69,31.53,5.93,47.22a35.89,35.89,0,0,1-6.26,15.19c1.57.08,3.12.1,4.62.1,6.75,0,16.37-4,17.94-11.34C365.94,168.09,364.32,162.88,363.37,158.55Z" fill="#156819"/><path d="M88.64,80.91a37.27,37.27,0,0,0,5.2-17.79l1.35.55,1.43.58,3,1.21,5.79,2.34a37.27,37.27,0,0,1-5.2,17.79Z" fill="#68e1fd" class="target-color"/><polygon points="99.94 84.26 88.36 79.58 88.59 76.98 100.17 81.66 99.94 84.26" fill="#68e1fd" class="target-color"/><path d="M93.85,63.13c.11-5.94-1.53-10.8-4.62-13.67l11.58,4.68c3.09,2.87,4.73,7.72,4.62,13.67l-1.35-.55-1.43-.58-1.49-.6-1.52-.61-1.52-.61-1.49-.6-1.43-.58Z" fill="#68e1fd" class="target-color"/><path d="M99.94,84.26,88.36,79.58a35.09,35.09,0,0,0,4.5-16,20.1,20.1,0,0,0-2-9.7l11.58,4.68a20.1,20.1,0,0,1,2,9.7A35.09,35.09,0,0,1,99.94,84.26Z"/><path d="M100.17,81.66,88.59,77a1.54,1.54,0,0,0-.13-.85L100,80.81A1.54,1.54,0,0,1,100.17,81.66Z" fill="#68e1fd" class="target-color"/><path d="M76.67,92.41c4.48-1.88,8.73-6,12-11.5l11.58,4.68c-3.24,5.54-7.49,9.62-12,11.5l-1.35-.55L85.46,96,84,95.36l-1.52-.61-1.52-.61-1.49-.6L78,93Z" fill="#68e1fd" class="target-color"/><polygon points="98.82 86.13 87.24 81.45 87.62 77.26 99.2 81.94 98.82 86.13"/><polygon points="99.2 81.94 87.62 77.26 87.6 77.14 99.18 81.82 99.2 81.94"/><polygon points="100.04 80.81 88.46 76.13 86.96 73.2 98.54 77.88 100.04 80.81" fill="#68e1fd" class="target-color"/><polygon points="99.18 81.82 87.6 77.14 86.45 74.9 98.03 79.58 99.18 81.82"/><path d="M67.95,92.81a11.3,11.3,0,0,0,8.72-.4l11.58,4.68a11.3,11.3,0,0,1-8.72.4Z" fill="#68e1fd" class="target-color"/><path d="M80.06,96.16,68.48,91.48a10.64,10.64,0,0,0,8.22-.38c4-1.68,7.7-5.21,10.55-9.66l11.58,4.68c-2.85,4.44-6.54,8-10.55,9.66A10.64,10.64,0,0,1,80.06,96.16Z"/><path d="M94.84,84.54,83.26,79.86a.79.79,0,0,0,.61,0,2.05,2.05,0,0,0,1-1c.7-1.52,1.24-2.82,1.62-3.89L98,79.58c-.38,1.07-.92,2.37-1.62,3.89a2.05,2.05,0,0,1-1,1A.79.79,0,0,1,94.84,84.54Z" fill="#68e1fd" class="target-color"/><path d="M95.38,83.22,83.8,78.54a.13.13,0,0,0,.1,0,.33.33,0,0,0,.16-.17L95.64,83a.33.33,0,0,1-.16.17A.13.13,0,0,1,95.38,83.22Z"/><path d="M83.8,78.54a.12.12,0,0,1-.05,0l11.58,4.68a.12.12,0,0,0,.05,0Z" fill="#68e1fd" class="target-color"/><path d="M85.69,69.28,97.27,74c.87.35,1.44,1.41,1.42,2.89a5.28,5.28,0,0,1-.15,1L87,73.2a5.28,5.28,0,0,0,.15-1C87.13,70.68,86.56,69.63,85.69,69.28Z" fill="#68e1fd" class="target-color"/><path d="M85.15,70.6l11.58,4.68a1.94,1.94,0,0,1,1,2A21.94,21.94,0,0,1,95.64,83L84.06,78.37a21.94,21.94,0,0,0,2.06-5.79A1.94,1.94,0,0,0,85.15,70.6Z"/><polygon points="96.08 77.23 84.5 72.56 84.71 72.47 96.29 77.15 96.08 77.23"/><path d="M85.18,72.74l11.58,4.68a.75.75,0,0,1,0,.18L95.42,77,94,76.47l-1.49-.6L91,75.25l-1.52-.61L88,74l-1.43-.58-1.35-.55A.75.75,0,0,0,85.18,72.74Z" fill="#68e1fd" class="target-color"/><path d="M85.19,72.91h0l11.58,4.68h0a1,1,0,0,1-.5.86L84.69,73.77A1,1,0,0,0,85.19,72.91Z" fill="#68e1fd" class="target-color"/><polygon points="96.05 78.82 84.47 74.14 84.48 73.86 96.06 78.54 96.05 78.82" fill="#68e1fd" class="target-color"/><polygon points="96.06 78.54 84.48 73.86 84.69 73.77 96.27 78.45 96.06 78.54" fill="#68e1fd" class="target-color"/><path d="M85.18,72.74a.37.37,0,0,0-.21-.28l11.58,4.68a.37.37,0,0,1,.21.28L95.64,77l-1.18-.48L93.24,76,92,75.49,90.75,75l-1.22-.49L88.34,74l-1.11-.45-.24-.1-.25-.1-.26-.11-.27-.11L85.93,73l-.26-.11-.25-.1Z" fill="#68e1fd" class="target-color"/><polygon points="95.07 79.23 83.49 74.56 83.49 74.28 95.07 78.95 95.07 79.23"/><path d="M84,75a1,1,0,0,0,.5-.86l11.58,4.68a1,1,0,0,1-.5.86.33.33,0,0,1-.25,0L83.71,75A.33.33,0,0,0,84,75Z" fill="#68e1fd" class="target-color"/><polygon points="96.08 77.23 84.5 72.56 84.5 72.27 96.08 76.95 96.08 77.23" fill="#68e1fd" class="target-color"/><path d="M85,72.45l11.58,4.68a.33.33,0,0,0-.26,0L84.71,72.47A.33.33,0,0,1,85,72.45Z"/><path d="M95.29,79.69,83.71,75a.45.45,0,0,1-.22-.46l11.58,4.68A.45.45,0,0,0,95.29,79.69Z"/><polygon points="94.86 79.04 83.28 74.36 83.49 74.28 95.07 78.95 94.86 79.04" fill="#68e1fd" class="target-color"/><path d="M84.28,71.82,95.86,76.5a.45.45,0,0,1,.22.46L84.51,72.27A.45.45,0,0,0,84.28,71.82Z" fill="#68e1fd" class="target-color"/><path d="M83,74.38a.33.33,0,0,0,.26,0L94.86,79a.33.33,0,0,1-.25,0Z" fill="#68e1fd" class="target-color"/><path d="M84.28,71.82,95.86,76.5a.33.33,0,0,0-.26,0L84,71.83A.33.33,0,0,1,84.28,71.82Z"/><polygon points="95.1 77.65 83.52 72.97 83.52 72.69 95.1 77.37 95.1 77.65"/><polygon points="94.88 77.74 83.3 73.06 83.52 72.97 95.1 77.65 94.88 77.74"/><path d="M95.1,77.37,83.52,72.69a1,1,0,0,1,.5-.86l11.58,4.68A1,1,0,0,0,95.1,77.37Z"/><path d="M84,70.65a1.43,1.43,0,0,1,1.1,0l11.58,4.68a1.43,1.43,0,0,0-1.1,0l-1.35-.55-1.43-.58-1.49-.6L89.84,73l-1.52-.61-1.49-.6L85.4,71.2Z" fill="#68e1fd" class="target-color"/><path d="M94.61,79.05,83,74.38a.45.45,0,0,1-.22-.46,1,1,0,0,1,.5-.86l11.58,4.68a1,1,0,0,0-.5.86A.45.45,0,0,0,94.61,79.05Z"/><polygon points="101.18 60.99 89.6 56.31 90.88 53.84 102.45 58.52 101.18 60.99" fill="#68e1fd" class="target-color"/><path d="M78,84a1,1,0,0,0,.5-.86L90.1,87.84a1,1,0,0,1-.5.86Z" fill="#68e1fd" class="target-color"/><path d="M83.75,78.5a9.16,9.16,0,0,1-1.88-4.13L93.45,79a9.16,9.16,0,0,0,1.88,4.13L94,82.63,92.54,82l-1.49-.6-1.52-.61L88,80.22l-1.49-.6-.73-.29-1.4-.56A2.76,2.76,0,0,1,83.75,78.5Z" fill="#68e1fd" class="target-color"/><polygon points="89.53 88.72 77.95 84.04 78.02 84.02 89.6 88.69 89.53 88.72" fill="#68e1fd" class="target-color"/><polygon points="99.47 60.95 87.89 56.27 88.74 55.91 100.32 60.59 99.47 60.95"/><path d="M100.3,61.9,88.72,57.22a1.92,1.92,0,0,0,.89-.91L101.18,61A1.92,1.92,0,0,1,100.3,61.9Z" fill="#68e1fd" class="target-color"/><polygon points="89.56 87.42 77.98 82.74 78.04 82.72 89.62 87.39 89.56 87.42"/><path d="M78.52,83.16a.44.44,0,0,0-.22-.45l11.58,4.68a.44.44,0,0,1,.22.45l-1.35-.55-1.43-.58-1.49-.6-1.52-.61-1.52-.61-1.49-.6-1.43-.58Z" fill="#68e1fd" class="target-color"/><path d="M77.7,84.05A.33.33,0,0,0,78,84l11.58,4.68a.33.33,0,0,1-.25,0Z" fill="#68e1fd" class="target-color"/><path d="M94.84,84.54,83.26,79.86a.73.73,0,0,1-.33-.27A12.73,12.73,0,0,1,81,75.8L92.6,80.48a12.73,12.73,0,0,0,1.92,3.79A.73.73,0,0,0,94.84,84.54Z"/><path d="M78.3,82.7l11.58,4.68a.33.33,0,0,0-.26,0L78,82.72A.33.33,0,0,1,78.3,82.7Z"/><polygon points="100.45 60.47 88.87 55.79 90.34 52.92 101.92 57.6 100.45 60.47"/><path d="M81.87,74.37A4.33,4.33,0,0,1,84,70.65l11.58,4.68A4.33,4.33,0,0,0,93.45,79L92.1,78.5l-1.43-.58-1.49-.6-1.52-.61-1.52-.61-1.49-.6-1.43-.58Z" fill="#68e1fd" class="target-color"/><polygon points="99.44 62.26 87.86 57.58 88.72 57.22 100.3 61.9 99.44 62.26" fill="#68e1fd" class="target-color"/><path d="M89.28,88.73,77.7,84.05a.45.45,0,0,1-.22-.46,1,1,0,0,1,.5-.85l11.58,4.68a1,1,0,0,0-.5.85A.45.45,0,0,0,89.28,88.73Z"/><path d="M99.18,62.27,87.6,57.59a.33.33,0,0,0,.26,0l11.58,4.68A.33.33,0,0,1,99.18,62.27Z" fill="#68e1fd" class="target-color"/><path d="M85.69,69.28,97.27,74a2.09,2.09,0,0,0-1.62.07c-1.66.7-3,3-3.18,5.21L80.89,74.56c.13-2.21,1.52-4.51,3.18-5.21A2.09,2.09,0,0,1,85.69,69.28Z"/><polygon points="90.51 82.17 78.93 77.49 81.02 75.8 92.6 80.48 90.51 82.17" fill="#68e1fd" class="target-color"/><polygon points="93.43 72.62 81.85 67.94 81.91 67.75 93.48 72.43 93.43 72.62"/><polygon points="91.86 76.81 80.28 72.13 82.48 68.63 94.06 73.31 91.86 76.81" fill="#68e1fd" class="target-color"/><polygon points="91.21 76.12 79.63 71.44 81.85 67.94 93.43 72.62 91.21 76.12"/><polygon points="94.47 72.02 82.89 67.34 82.98 62.58 94.56 67.26 94.47 72.02" fill="#68e1fd" class="target-color"/><polygon points="93.48 72.43 81.91 67.75 81.99 62.99 93.57 67.67 93.48 72.43"/><path d="M94.06,73.31,82.48,68.63a2.59,2.59,0,0,0,.4-1.29L94.47,72A2.59,2.59,0,0,1,94.06,73.31Z" fill="#68e1fd" class="target-color"/><path d="M90.18,82.36,78.6,77.68a1.39,1.39,0,0,0,.33-.2l11.58,4.68A1.39,1.39,0,0,1,90.18,82.36Z" fill="#68e1fd" class="target-color"/><polygon points="90.21 81.06 78.63 76.38 80.89 74.56 92.47 79.24 90.21 81.06"/><path d="M85.91,57.2l11.58,4.68a.45.45,0,0,1,.22.46,1,1,0,0,1-.5.86L85.63,58.51a1,1,0,0,0,.5-.86A.45.45,0,0,0,85.91,57.2Z" fill="#68e1fd" class="target-color"/><polygon points="88.8 82.94 77.22 78.27 78.6 77.68 90.18 82.36 88.8 82.94" fill="#68e1fd" class="target-color"/><path d="M85.14,92,73.56,87.33a.79.79,0,0,0,.61,0,2,2,0,0,0,1-1c1.48-3.23,2.24-5.45,2.26-6.62a4.37,4.37,0,0,0-.17-1.37L88.8,82.94A4.37,4.37,0,0,1,89,84.32c0,1.17-.78,3.39-2.26,6.62a2,2,0,0,1-1,1A.79.79,0,0,1,85.14,92Z" fill="#68e1fd" class="target-color"/><path d="M85.67,90.68,74.09,86a.13.13,0,0,0,.1,0,.31.31,0,0,0,.16-.17A21.84,21.84,0,0,0,76.42,80a1.94,1.94,0,0,0-1-2L87,82.75a1.94,1.94,0,0,1,1,2,21.84,21.84,0,0,1-2.07,5.78.31.31,0,0,1-.16.17A.13.13,0,0,1,85.67,90.68Z"/><path d="M74.09,86A.12.12,0,0,1,74,86l11.58,4.68a.12.12,0,0,0,.05,0Z" fill="#68e1fd" class="target-color"/><path d="M90.88,77.58,79.3,72.9l.2-.06a1.8,1.8,0,0,0,.77-.71l11.58,4.68a1.8,1.8,0,0,1-.77.71Z" fill="#68e1fd" class="target-color"/><polygon points="96.41 63.53 84.83 58.85 85.63 58.52 97.21 63.19 96.41 63.53" fill="#68e1fd" class="target-color"/><polygon points="94.56 67.26 82.98 62.58 84.69 58.99 96.27 63.67 94.56 67.26" fill="#68e1fd" class="target-color"/><polygon points="93.84 66.63 82.26 61.95 83.93 58.52 95.51 63.2 93.84 66.63"/><path d="M96.27,63.67,84.69,59a.29.29,0,0,1,.13-.14L96.4,63.53A.29.29,0,0,0,96.27,63.67Z" fill="#68e1fd" class="target-color"/><path d="M91.08,76.23,79.5,71.55a.29.29,0,0,0,.14-.11l11.58,4.68A.29.29,0,0,1,91.08,76.23Z"/><polygon points="88.23 81.89 76.65 77.22 78.63 76.38 90.21 81.06 88.23 81.89"/><polygon points="86.34 86.29 74.76 81.61 74.77 81.33 86.35 86 86.34 86.29" fill="#68e1fd" class="target-color"/><polygon points="86.35 86 74.77 81.33 74.98 81.23 86.56 85.91 86.35 86" fill="#68e1fd" class="target-color"/><polygon points="85.36 86.7 73.78 82.02 73.79 81.74 85.37 86.42 85.36 86.7"/><path d="M74.26,82.47a1,1,0,0,0,.5-.86l11.58,4.68a1,1,0,0,1-.5.86h0l-1.35-.55L83.05,86l-1.49-.6L80,84.81l-1.52-.61L77,83.6,75.61,83l-1.35-.55Z" fill="#68e1fd" class="target-color"/><polygon points="86.37 84.7 74.79 80.03 75.01 79.93 86.59 84.61 86.37 84.7"/><path d="M75.27,79.92,86.85,84.6a.45.45,0,0,1,.22.46,1,1,0,0,1-.5.85L75,81.23a1,1,0,0,0,.5-.85A.45.45,0,0,0,75.27,79.92Z" fill="#68e1fd" class="target-color"/><path d="M74,82.48a.33.33,0,0,0,.25,0l11.58,4.68a.33.33,0,0,1-.25,0Z" fill="#68e1fd" class="target-color"/><polygon points="86.37 84.7 74.79 80.03 74.8 79.74 86.38 84.42 86.37 84.7" fill="#68e1fd" class="target-color"/><path d="M75.27,79.92,86.85,84.6a.33.33,0,0,0-.26,0L75,79.93A.33.33,0,0,1,75.27,79.92Z"/><path d="M93.57,67.67,82,63a2.55,2.55,0,0,1,.26-1l11.58,4.68A2.55,2.55,0,0,0,93.57,67.67Z"/><polygon points="89.06 77.91 77.48 73.23 79.3 72.9 90.88 77.58 89.06 77.91" fill="#68e1fd" class="target-color"/><path d="M76,76.74l11.58,4.68a1.86,1.86,0,0,1,.67.47L76.65,77.21A1.86,1.86,0,0,0,76,76.74Z" fill="#68e1fd" class="target-color"/><path d="M85.59,87.16,74,82.48a.45.45,0,0,1-.22-.46L85.36,86.7A.45.45,0,0,0,85.59,87.16Z"/><polygon points="89.26 76.55 77.68 71.87 79.5 71.55 91.08 76.23 89.26 76.55"/><path d="M88.67,77.87,77.09,73.19a.71.71,0,0,0,.39,0l11.58,4.68A.71.71,0,0,1,88.67,77.87Z" fill="#68e1fd" class="target-color"/><polygon points="85.15 86.51 73.57 81.83 73.79 81.74 85.37 86.42 85.15 86.51" fill="#68e1fd" class="target-color"/><path d="M74.57,79.28,86.15,84a.45.45,0,0,1,.22.46L74.8,79.74A.45.45,0,0,0,74.57,79.28Z" fill="#68e1fd" class="target-color"/><polygon points="89.26 76.55 77.68 71.87 77.58 71.82 89.16 76.5 89.26 76.55" fill="#68e1fd" class="target-color"/><path d="M73.31,81.84a.33.33,0,0,0,.26,0l11.58,4.68a.33.33,0,0,1-.26,0Z" fill="#68e1fd" class="target-color"/><path d="M74.57,79.28,86.15,84a.33.33,0,0,0-.25,0L74.32,79.29A.33.33,0,0,1,74.57,79.28Z"/><polygon points="85.39 85.12 73.81 80.44 73.82 80.15 85.4 84.83 85.39 85.12"/><polygon points="89.16 76.5 77.58 71.82 77.33 71.4 88.92 76.08 89.16 76.5" fill="#68e1fd" class="target-color"/><path d="M88.67,77.87,77.09,73.19a.74.74,0,0,1-.36-.33l11.58,4.68A.74.74,0,0,0,88.67,77.87Z"/><polygon points="85.18 85.21 73.6 80.53 73.81 80.44 85.39 85.12 85.18 85.21"/><polygon points="88.92 75.83 77.34 71.16 78.42 68.76 90 73.44 88.92 75.83" fill="#68e1fd" class="target-color"/><path d="M88.92,76.08,77.34,71.4a.28.28,0,0,1,0-.24l11.58,4.68A.28.28,0,0,0,88.92,76.08Z" fill="#68e1fd" class="target-color"/><path d="M85.4,84.83,73.82,80.15a1,1,0,0,1,.5-.86L85.9,84A1,1,0,0,0,85.4,84.83Z"/><polygon points="88.14 75.42 76.56 70.74 77.64 68.34 89.22 73.02 88.14 75.42"/><path d="M90,73.44,78.42,68.76a2.5,2.5,0,0,0,.23-1l11.58,4.68A2.5,2.5,0,0,1,90,73.44Z" fill="#68e1fd" class="target-color"/><path d="M74.34,78.12a1.43,1.43,0,0,1,1.11-.05L87,82.75a1.43,1.43,0,0,0-1.11.05l-1.35-.55-1.43-.58-1.49-.6-1.52-.61-1.52-.61-1.49-.6-1.43-.58Z" fill="#68e1fd" class="target-color"/><path d="M84.89,86.52,73.31,81.84a.44.44,0,0,1-.22-.45,1,1,0,0,1,.5-.86l11.58,4.68a1,1,0,0,0-.5.86A.44.44,0,0,0,84.89,86.52Z"/><path d="M85.67,48.86l11.58,4.68a10,10,0,0,1,4.67,4.06L90.34,52.92A10,10,0,0,0,85.67,48.86Z"/><path d="M89.23,49.46a9.84,9.84,0,0,0-3-1.94l11.58,4.68a9.84,9.84,0,0,1,3,1.94l-1.35-.55L98,53l-1.49-.6L95,51.8l-1.52-.61-.75-.3-1.46-.59L90.58,50A8.94,8.94,0,0,1,89.23,49.46Z" fill="#68e1fd" class="target-color"/><path d="M74,86a9.15,9.15,0,0,1-1.88-4.12l11.58,4.68a9.15,9.15,0,0,0,1.88,4.12l-1.35-.55-1.43-.58-1.49-.6-1.52-.61-1.52-.61-1.49-.6-1.43-.58A5.63,5.63,0,0,1,74,86Z" fill="#68e1fd" class="target-color"/><polygon points="85.71 81.61 74.13 76.93 72.66 75.87 84.24 80.55 85.71 81.61" fill="#68e1fd" class="target-color"/><path d="M76,76.74l11.58,4.68a2.08,2.08,0,0,0-1.61.07l-.24.11L74.13,76.93l.24-.11A2.08,2.08,0,0,1,76,76.74Z"/><path d="M80.06,96.16,68.48,91.48l-.21-.09,11.58,4.68Z" fill="#68e1fd" class="target-color"/><path d="M72.16,81.84a4.33,4.33,0,0,1,2.18-3.72L85.92,82.8a4.33,4.33,0,0,0-2.18,3.72Z" fill="#68e1fd" class="target-color"/><polygon points="90.23 72.47 78.65 67.79 78.73 63.72 90.31 68.4 90.23 72.47" fill="#68e1fd" class="target-color"/><path d="M99.18,62.27,87.6,57.59a.45.45,0,0,1-.22-.46,1,1,0,0,1,.5-.86L99.47,61a1,1,0,0,0-.5.86A.45.45,0,0,0,99.18,62.27Z"/><path d="M93.88,59.08,82.3,54.4a1,1,0,0,0,.5-.86l11.58,4.68A1,1,0,0,1,93.88,59.08Z" fill="#68e1fd" class="target-color"/><polygon points="93.81 59.11 82.23 54.43 82.3 54.4 93.88 59.08 93.81 59.11" fill="#68e1fd" class="target-color"/><polygon points="79.85 96.08 68.27 91.4 68.83 87.4 80.41 92.08 79.85 96.08" fill="#68e1fd" class="target-color"/><polygon points="100.32 60.59 88.74 55.91 88.87 55.79 100.45 60.47 100.32 60.59"/><polygon points="93.83 57.8 82.25 53.12 82.32 53.09 93.9 57.77 93.83 57.8"/><path d="M82.67,53.15l11.58,4.68a.53.53,0,0,1,.13.39L82.8,53.54A.53.53,0,0,0,82.67,53.15Z" fill="#68e1fd" class="target-color"/><path d="M82.67,53.15l-.09-.06,11.58,4.68.09.06-.69-.28-.73-.3-.76-.31-.77-.31-.77-.31L89.75,56l-.73-.3-.69-.28-.66-.27-.7-.28-.73-.29-.74-.3-.74-.3L84,53.7l-.7-.28L83,53.28A2,2,0,0,1,82.67,53.15Z" fill="#68e1fd" class="target-color"/><path d="M82,54.44a.33.33,0,0,0,.25,0l11.58,4.68a.33.33,0,0,1-.25,0Z" fill="#68e1fd" class="target-color"/><path d="M85.14,92,73.56,87.33a.73.73,0,0,1-.33-.27c-1.38-2-2.07-3.64-2-4.81A7,7,0,0,1,73,77.83l11.58,4.68a7,7,0,0,0-1.79,4.42c0,1.17.67,2.79,2,4.81A.73.73,0,0,0,85.14,92Z"/><path d="M82.58,53.08l11.58,4.68a.33.33,0,0,0-.26,0L82.32,53.09A.33.33,0,0,1,82.58,53.08Z"/><path d="M90.31,68.4,78.73,63.72a1.23,1.23,0,0,0-.33-.95L90,67.45A1.23,1.23,0,0,1,90.31,68.4Z" fill="#68e1fd" class="target-color"/><polygon points="89.22 73.02 77.64 68.34 77.74 64.14 89.32 68.82 89.22 73.02"/><path d="M80.41,92.08,68.83,87.4a1.69,1.69,0,0,0-.11-.94L80.3,91.14A1.69,1.69,0,0,1,80.41,92.08Z" fill="#68e1fd" class="target-color"/><polygon points="89.32 68.82 77.74 64.14 77.7 64 89.28 68.68 89.32 68.82"/><polygon points="96.43 62.23 84.85 57.55 85.66 57.21 97.24 61.89 96.43 62.23"/><path d="M95.51,63.19,83.93,58.52a2,2,0,0,1,.92-1l11.58,4.68A2,2,0,0,0,95.51,63.19Z"/><path d="M92.23,61.37,80.65,56.69a1,1,0,0,0,.5-.86l11.58,4.68A1,1,0,0,1,92.23,61.37Z" fill="#68e1fd" class="target-color"/><polygon points="92.16 61.39 80.58 56.72 80.65 56.69 92.23 61.37 92.16 61.39" fill="#68e1fd" class="target-color"/><path d="M93.56,59.12,82,54.44a.45.45,0,0,1-.22-.46,1,1,0,0,1,.5-.86L93.83,57.8a1,1,0,0,0-.5.86A.45.45,0,0,0,93.56,59.12Z"/><polygon points="92.19 60.09 80.61 55.41 80.67 55.38 92.25 60.06 92.19 60.09"/><path d="M81.15,55.83a.45.45,0,0,0-.22-.46L92.51,60a.45.45,0,0,1,.22.46Z" fill="#68e1fd" class="target-color"/><polygon points="78.98 95.64 67.4 90.95 67.86 87.6 79.44 92.28 78.98 95.64"/><path d="M80.33,56.73a.33.33,0,0,0,.26,0l11.58,4.68a.33.33,0,0,1-.26,0Z" fill="#68e1fd" class="target-color"/><path d="M84.24,80.55,72.66,75.87a.23.23,0,0,1,0-.27l11.58,4.68A.23.23,0,0,0,84.24,80.55Z" fill="#68e1fd" class="target-color"/><polygon points="84.21 80.28 72.63 75.6 73.02 74.63 84.6 79.31 84.21 80.28" fill="#68e1fd" class="target-color"/><polygon points="84.55 82.51 72.97 77.83 72 77.13 83.58 81.81 84.55 82.51"/><path d="M80.93,55.37,92.51,60a.33.33,0,0,0-.26,0L80.67,55.38A.33.33,0,0,1,80.93,55.37Z"/><path d="M91.91,61.41,80.33,56.73a.45.45,0,0,1-.22-.46,1,1,0,0,1,.5-.86l11.58,4.68a1,1,0,0,0-.5.86A.45.45,0,0,0,91.91,61.41Z"/><polygon points="83.39 79.94 71.81 75.27 72.2 74.3 83.78 78.97 83.39 79.94"/><path d="M84.6,79.31,73,74.63a1.84,1.84,0,0,0,0-1.72l11.58,4.68A1.84,1.84,0,0,1,84.6,79.31Z" fill="#68e1fd" class="target-color"/><path d="M83.58,81.81,72,77.13a1.61,1.61,0,0,1-.19-1.86l11.58,4.68A1.61,1.61,0,0,0,83.58,81.81Z"/><path d="M83.78,79,72.2,74.3a.26.26,0,0,0,0-.24l11.58,4.68A.26.26,0,0,1,83.78,79Z"/><polygon points="80.3 91.14 68.72 86.47 67.61 84.19 79.19 88.87 80.3 91.14" fill="#68e1fd" class="target-color"/><polygon points="79.19 88.87 67.61 84.19 67.59 84.07 79.17 88.75 79.19 88.87" fill="#68e1fd" class="target-color"/><polygon points="84.55 77.59 72.97 72.91 71.86 71.5 83.44 76.18 84.55 77.59" fill="#68e1fd" class="target-color"/><polygon points="89.28 68.68 77.7 64 75.48 62.07 87.06 66.75 89.28 68.68"/><polygon points="79.75 78.47 68.17 73.79 70.95 72.62 82.53 77.3 79.75 78.47" fill="#68e1fd" class="target-color"/><polygon points="83.77 78.73 72.19 74.05 71.08 72.64 82.66 77.32 83.77 78.73"/><polygon points="89.97 67.45 78.39 62.77 75.92 60.61 87.5 65.29 89.97 67.45" fill="#68e1fd" class="target-color"/><path d="M71,72.61l11.58,4.68,0,0L71.08,72.64Z"/><path d="M71.57,71.28,83.15,76a.69.69,0,0,1,.29.22L71.86,71.5A.69.69,0,0,0,71.57,71.28Z" fill="#68e1fd" class="target-color"/><path d="M71,72.61l11.58,4.68a.11.11,0,0,0-.09,0L71,72.62A.11.11,0,0,1,71,72.61Z" fill="#68e1fd" class="target-color"/><polygon points="79.17 88.75 67.59 84.07 68.03 79.21 79.61 83.89 79.17 88.75" fill="#68e1fd" class="target-color"/><path d="M69.54,75.38l11.58,4.68a.7.7,0,0,1,0,.22l-1.35-.55-1.43-.58-1.49-.6-1.52-.61-1.52-.61-1.49-.6-1.43-.58-1.35-.55A.7.7,0,0,0,69.54,75.38Z" fill="#68e1fd" class="target-color"/><path d="M69.07,76.45a1,1,0,0,0,.5-.86l11.58,4.68a1,1,0,0,1-.5.86Z" fill="#68e1fd" class="target-color"/><polygon points="80.58 81.16 69 76.48 69.07 76.45 80.65 81.13 80.58 81.16" fill="#68e1fd" class="target-color"/><path d="M71.57,71.28,83.15,76a.77.77,0,0,0-.59,0L71,71.31A.77.77,0,0,1,71.57,71.28Z"/><polygon points="80.61 79.85 69.03 75.17 69.09 75.15 80.67 79.83 80.61 79.85"/><path d="M69.54,75.38a.36.36,0,0,0-.2-.24l11.58,4.68a.36.36,0,0,1,.2.24l-4.49-1.81-1.17-.47-1.15-.47-1.11-.45-1-.42-.3-.12-.32-.13L71.19,76l-.34-.14-.34-.14-.34-.14-.32-.13Z" fill="#68e1fd" class="target-color"/><path d="M68.75,76.49a.33.33,0,0,0,.26,0l11.58,4.68a.33.33,0,0,1-.26,0Z" fill="#68e1fd" class="target-color"/><path d="M69.35,75.14l11.58,4.68a.33.33,0,0,0-.26,0L69.09,75.15A.33.33,0,0,1,69.35,75.14Z"/><path d="M79.61,83.89,68,79.21a1.38,1.38,0,0,0-.22-1L79.38,82.9A1.38,1.38,0,0,1,79.61,83.89Z" fill="#68e1fd" class="target-color"/><path d="M83.83,71.83,72.25,67.15a.8.8,0,0,0,.61,0,2,2,0,0,0,1-1q1.09-2.37,1.66-4l11.58,4.68q-.57,1.65-1.66,4a2,2,0,0,1-1,1A.8.8,0,0,1,83.83,71.83Z" fill="#68e1fd" class="target-color"/><path d="M85.91,57.2l11.58,4.68a.33.33,0,0,0-.26,0L85.66,57.21A.33.33,0,0,1,85.91,57.2Z"/><path d="M74.68,56.57l11.58,4.68c.87.35,1.44,1.41,1.42,2.89a5.81,5.81,0,0,1-.17,1.15L75.92,60.61a5.81,5.81,0,0,0,.17-1.15C76.12,58,75.55,56.92,74.68,56.57Z" fill="#68e1fd" class="target-color"/><path d="M84.37,70.51,72.79,65.83a.13.13,0,0,0,.1,0,.31.31,0,0,0,.16-.17,21.83,21.83,0,0,0,2.06-5.78,2,2,0,0,0-1-2l11.58,4.68a2,2,0,0,1,1,2,21.83,21.83,0,0,1-2.06,5.78.31.31,0,0,1-.16.17A.13.13,0,0,1,84.37,70.51Z"/><path d="M72.79,65.83a.12.12,0,0,1-.05,0l1.35.55,1.43.58,3,1.21,5.79,2.34a.12.12,0,0,0,.05,0Z" fill="#68e1fd" class="target-color"/><path d="M80.33,81.17,68.75,76.49a.45.45,0,0,1-.22-.46,1,1,0,0,1,.5-.86l11.58,4.68a1,1,0,0,0-.5.86A.45.45,0,0,0,80.33,81.17Z"/><path d="M80.67,79.83c.27-.11.49.09.48.45a1,1,0,0,1-.5.86l-.06,0c-.28.12-.49-.09-.48-.45a1,1,0,0,1,.5-.86Z"/><path d="M63.58,87a.31.31,0,0,0-.15-.14L75,91.56a.31.31,0,0,1,.15.14l-1.35-.55-1.43-.58L70.88,90l-1.52-.61-1.52-.61-1.49-.6-1.43-.58Z" fill="#68e1fd" class="target-color"/><path d="M73.68,61.06a1,1,0,0,0,.5-.86l11.58,4.68a1,1,0,0,1-.5.86Z" fill="#68e1fd" class="target-color"/><polygon points="85.05 65.83 73.47 61.15 73.68 61.06 85.26 65.74 85.05 65.83" fill="#68e1fd" class="target-color"/><polygon points="85.04 66.12 73.46 61.44 73.47 61.15 85.05 65.83 85.04 66.12" fill="#68e1fd" class="target-color"/><polygon points="84.06 66.53 72.47 61.85 72.48 61.56 84.06 66.25 84.06 66.53"/><path d="M73,62.29a1,1,0,0,0,.5-.85L85,66.12a1,1,0,0,1-.5.85h0l-1.35-.55-1.43-.58-1.49-.6-1.52-.61L77.23,64l-1.49-.6-1.43-.58L73,62.29Z" fill="#68e1fd" class="target-color"/><polygon points="85.07 64.53 73.49 59.84 73.71 59.75 85.29 64.43 85.07 64.53"/><path d="M74.18,60.2a.45.45,0,0,0-.22-.46l11.58,4.68a.45.45,0,0,1,.22.46l-1.35-.55L83,63.76l-1.49-.6L80,62.54l-1.52-.61L77,61.33l-1.43-.58Z" fill="#68e1fd" class="target-color"/><polygon points="79.39 82.9 67.81 78.22 66.9 77.04 78.48 81.72 79.39 82.9" fill="#68e1fd" class="target-color"/><polygon points="88.31 77.54 76.73 72.86 76.49 72.45 88.07 77.13 88.31 77.54"/><polygon points="78.47 81.48 66.89 76.8 68.02 73.95 79.6 78.63 78.47 81.48" fill="#68e1fd" class="target-color"/><polygon points="77.64 81.16 66.06 76.48 67.19 73.63 78.77 78.31 77.64 81.16"/><path d="M78.48,81.72,66.9,77a.26.26,0,0,1,0-.24l11.58,4.68A.26.26,0,0,0,78.48,81.72Z" fill="#68e1fd" class="target-color"/><path d="M79.6,78.63,68,74a.29.29,0,0,1,.14-.16l11.58,4.68A.29.29,0,0,0,79.6,78.63Z" fill="#68e1fd" class="target-color"/><path d="M72.7,62.3a.33.33,0,0,0,.26,0L84.54,67a.33.33,0,0,1-.26,0Z" fill="#68e1fd" class="target-color"/><polygon points="85.07 64.53 73.49 59.84 73.49 59.56 85.07 64.24 85.07 64.53" fill="#68e1fd" class="target-color"/><path d="M74,59.74l11.58,4.68a.33.33,0,0,0-.25,0L73.71,59.75A.33.33,0,0,1,74,59.74Z"/><polygon points="78.6 84.03 67.02 79.35 66.12 78.17 77.7 82.85 78.6 84.03"/><polygon points="79.77 77.16 68.19 72.48 70.98 71.31 82.56 75.99 79.77 77.16"/><path d="M84.28,67,72.7,62.3a.44.44,0,0,1-.22-.45l11.58,4.68A.44.44,0,0,0,84.28,67Z"/><polygon points="83.85 66.33 72.27 61.65 72.48 61.56 84.06 66.25 83.85 66.33" fill="#68e1fd" class="target-color"/><path d="M73.49,59.56a.45.45,0,0,0-.22-.46l11.58,4.68a.45.45,0,0,1,.22.46Z" fill="#68e1fd" class="target-color"/><path d="M77.7,82.85,66.12,78.17a1.83,1.83,0,0,1-.05-1.69l11.58,4.68A1.83,1.83,0,0,0,77.7,82.85Z"/><path d="M78.77,78.31,67.19,73.63a2.07,2.07,0,0,1,1-1.15l11.58,4.68A2.07,2.07,0,0,0,78.77,78.31Z"/><path d="M72,61.67a.33.33,0,0,0,.26,0l11.58,4.68a.33.33,0,0,1-.26,0Z" fill="#68e1fd" class="target-color"/><path d="M73.27,59.11l11.58,4.68a.33.33,0,0,0-.26,0L73,59.12A.33.33,0,0,1,73.27,59.11Z"/><polygon points="84.08 64.94 72.5 60.26 72.51 59.98 84.09 64.66 84.08 64.94"/><polygon points="83.87 65.03 72.29 60.35 72.5 60.26 84.08 64.94 83.87 65.03"/><path d="M84.09,64.66,72.51,60a1,1,0,0,1,.5-.86L84.59,63.8A1,1,0,0,0,84.09,64.66Z"/><path d="M73,57.94a1.42,1.42,0,0,1,1.1,0l11.58,4.68a1.42,1.42,0,0,0-1.1,0l-1.35-.55-1.43-.58-1.49-.6-1.52-.61-1.52-.61-1.49-.6-1.43-.58Z" fill="#68e1fd" class="target-color"/><path d="M83.59,66.34,72,61.67a.45.45,0,0,1-.22-.46,1,1,0,0,1,.5-.86L83.87,65a1,1,0,0,0-.5.86A.45.45,0,0,0,83.59,66.34Z"/><path d="M84.47,70.51a.12.12,0,0,1-.15,0,9.18,9.18,0,0,1-1.88-4.12,4.34,4.34,0,0,1,2.18-3.72c1.17-.49,2.1.37,2.07,1.94a21.83,21.83,0,0,1-2.06,5.78A.31.31,0,0,1,84.47,70.51Zm-.41-4c0,.36.21.55.48.44a1,1,0,0,0,.5-.85v-.29l.22-.09a1,1,0,0,0,.5-.86c0-.36-.2-.56-.47-.45l-.22.09v-.28c0-.36-.21-.56-.48-.45a1,1,0,0,0-.5.86v.28l-.21.09a1,1,0,0,0-.5.86c0,.36.21.56.48.45l.21-.09v.29" fill="#68e1fd" class="target-color"/><path d="M85.9,84c.27-.11.49.09.48.45v.29l.22-.09c.27-.11.49.08.48.45a1,1,0,0,1-.5.85l-.22.09v.29a1,1,0,0,1-.5.86c-.27.11-.48-.09-.47-.45v-.29l-.22.09c-.27.11-.49-.08-.48-.44a1,1,0,0,1,.5-.86l.22-.09v-.29A1,1,0,0,1,85.9,84Z"/><path d="M88.07,77.13,76.49,72.45a2,2,0,0,1,.07-1.71l11.58,4.68A2,2,0,0,0,88.07,77.13Z"/><polygon points="79.44 92.28 67.86 87.6 67.85 87.46 79.43 92.14 79.44 92.28"/><polygon points="79.43 92.14 67.85 87.46 66.74 85.19 78.32 89.86 79.43 92.14"/><path d="M78.32,89.86,66.74,85.19a1.56,1.56,0,0,1-.12-.83L78.2,89A1.56,1.56,0,0,0,78.32,89.86Z"/><polygon points="78.2 89.03 66.62 84.36 67.05 79.49 78.63 84.17 78.2 89.03"/><polygon points="78.63 84.17 67.05 79.49 67.02 79.35 78.6 84.03 78.63 84.17"/><path d="M67.4,91A10.42,10.42,0,0,1,63.58,87L75.16,91.7A10.42,10.42,0,0,0,79,95.63C75.5,94.23,70.77,92.59,67.4,91Z" fill="#68e1fd" class="target-color"/><path d="M79.53,97.49,67.95,92.81a10.72,10.72,0,0,1-5.21-4.74.94.94,0,0,1,.16-1,.69.69,0,0,1,.26-.21.34.34,0,0,1,.26,0L75,91.56a.34.34,0,0,0-.26,0,.69.69,0,0,0-.26.21.94.94,0,0,0-.16,1A10.72,10.72,0,0,0,79.53,97.49Z"/><path d="M62.33,85.9a1,1,0,0,0,.26-1l11.58,4.68a1,1,0,0,1-.26,1Z" fill="#68e1fd" class="target-color"/><path d="M62.33,85.9l11.58,4.68a.66.66,0,0,1-.2.14l-1.35-.55-1.43-.58L69.43,89l-1.52-.61-1.52-.61-1.49-.6-1.43-.58L62.13,86A.66.66,0,0,0,62.33,85.9Z" fill="#68e1fd" class="target-color"/><path d="M62.13,86h0l11.58,4.68h0l-1.35-.55-1.43-.58L69.43,89l-1.52-.61-1.52-.61-1.49-.6-1.43-.58L62.13,86Z" fill="#68e1fd" class="target-color"/><path d="M61.87,86.06a.34.34,0,0,0,.26,0l11.58,4.68a.34.34,0,0,1-.26,0Z" fill="#68e1fd" class="target-color"/><path d="M72.74,65.79a9.18,9.18,0,0,1-1.88-4.12l11.58,4.68a9.18,9.18,0,0,0,1.88,4.12L83,69.92l-1.43-.58L80,68.74l-1.52-.61L77,67.51l-1.49-.6-1.43-.58-.69-.28A2.76,2.76,0,0,1,72.74,65.79Z" fill="#68e1fd" class="target-color"/><path d="M70.86,61.66A4.34,4.34,0,0,1,73,57.94l11.58,4.68a4.34,4.34,0,0,0-2.18,3.72l-1.35-.55-1.43-.58-1.49-.6L76.65,64l-1.52-.61-1.49-.6-1.43-.58Z" fill="#68e1fd" class="target-color"/><path d="M74.68,56.57l11.58,4.68a2.09,2.09,0,0,0-1.62.07,4.75,4.75,0,0,0-2,1.74L71.09,58.39a4.75,4.75,0,0,1,2-1.74A2.09,2.09,0,0,1,74.68,56.57Z"/><polygon points="80.24 64.8 68.66 60.12 70.33 59.84 81.91 64.52 80.24 64.8" fill="#68e1fd" class="target-color"/><path d="M83.83,71.83,72.25,67.15a.72.72,0,0,1-.32-.27c-1.38-2-2.07-3.64-2-4.81a6.63,6.63,0,0,1,.45-2.24l11.58,4.68a6.63,6.63,0,0,0-.45,2.24c0,1.17.67,2.79,2,4.81A.72.72,0,0,0,83.83,71.83Z"/><path d="M62.59,84.94a20.69,20.69,0,0,1-1.27-6.87L72.9,82.75a20.69,20.69,0,0,0,1.27,6.87h0L62.59,84.94Z" fill="#68e1fd" class="target-color"/><polygon points="80.45 63.45 68.87 58.77 71.08 58.39 82.67 63.06 80.45 63.45"/><path d="M80.39,63.44,68.81,58.76a.13.13,0,0,1-.07-.09l11.58,4.68A.13.13,0,0,0,80.39,63.44Z" fill="#68e1fd" class="target-color"/><path d="M80.39,63.44,68.81,58.76h.05l11.58,4.68Z"/><path d="M79.85,64.77,68.27,60.09a.71.71,0,0,0,.39,0L80.24,64.8A.71.71,0,0,1,79.85,64.77Z" fill="#68e1fd" class="target-color"/><path d="M61.32,78.07a.43.43,0,0,0-.22-.41l11.58,4.68a.43.43,0,0,1,.22.41l-1.35-.55-1.43-.58L68.62,81l-1.52-.61-1.52-.61-1.49-.6-1.43-.58Z" fill="#68e1fd" class="target-color"/><path d="M61.1,77.66l11.58,4.68a.33.33,0,0,0-.26,0L60.84,77.67A.33.33,0,0,1,61.1,77.66Z"/><path d="M73.45,90.74,61.87,86.06a.34.34,0,0,1-.18-.2,21.93,21.93,0,0,1-1.35-7.29,1,1,0,0,1,.47-.88h0l11.58,4.68h0a1,1,0,0,0-.47.88,21.93,21.93,0,0,0,1.35,7.29A.34.34,0,0,0,73.45,90.74Z"/><path d="M72.42,82.35c.26-.11.47.06.48.4a20.69,20.69,0,0,0,1.27,6.87,1,1,0,0,1-.26,1,.65.65,0,0,1-.2.14.31.31,0,0,1-.44-.19,21.93,21.93,0,0,1-1.35-7.29,1,1,0,0,1,.47-.88Z"/><path d="M79.85,64.77,68.27,60.09a.83.83,0,0,1-.47-.6l11.58,4.68A.83.83,0,0,0,79.85,64.77Z"/><path d="M60.87,76a1,1,0,0,0,.52-.82L73,79.88a1,1,0,0,1-.52.82l-1.3-.53-1.38-.56L68.32,79l-1.46-.59-1.46-.59L64,77.27l-1.38-.56-1.3-.53,0,0-.05,0-.05,0-.05,0-.05,0-.05,0-.05,0Z" fill="#68e1fd" class="target-color"/><path d="M60.87,76,72.45,80.7h0L60.85,76Z" fill="#68e1fd" class="target-color"/><path d="M60.63,76a.32.32,0,0,0,.22,0l11.58,4.68a.32.32,0,0,1-.22,0Z" fill="#68e1fd" class="target-color"/><polygon points="80.33 63.35 68.75 58.68 68.28 56.94 79.86 61.62 80.33 63.35" fill="#68e1fd" class="target-color"/><path d="M85.67,48.86l11.58,4.68a10.59,10.59,0,0,0-8.19.37,23.24,23.24,0,0,0-9.19,7.71L68.29,56.94a23.24,23.24,0,0,1,9.19-7.71A10.59,10.59,0,0,1,85.67,48.86Z" fill="#68e1fd" class="target-color"/><polygon points="79.39 64.16 67.81 59.48 67.45 58.12 79.03 62.8 79.39 64.16"/><path d="M61.39,75.2a35.88,35.88,0,0,1,6.06-17.08L79,62.8A35.88,35.88,0,0,0,73,79.88l-1.35-.55-1.43-.58-1.49-.6-1.52-.61-1.52-.61-1.49-.6-1.43-.58Z" fill="#68e1fd" class="target-color"/><path d="M72.21,80.69,60.63,76a.46.46,0,0,1-.22-.5A37.86,37.86,0,0,1,66,58.7c3.18-5.16,7.28-9,11.53-10.78a11.26,11.26,0,0,1,8.7-.4l11.58,4.68a11.26,11.26,0,0,0-8.7.4c-4.26,1.79-8.35,5.62-11.53,10.78A37.86,37.86,0,0,0,72,80.2.46.46,0,0,0,72.21,80.69Z"/><path d="M75.65,107.16l-11.58-4.68C57.34,99.76,53,91.65,53.18,80.21c.33-17.55,11.31-36.27,24.52-41.82l11.58,4.68C76.07,48.62,65.09,67.35,64.76,84.89,64.55,96.33,68.92,104.44,75.65,107.16Z" fill="#68e1fd" class="target-color"/><path d="M90.15,37.83l11.58,4.68c-3.59-1.45-7.85-1.37-12.45.56L77.7,38.39C82.3,36.46,86.56,36.38,90.15,37.83Z" fill="#68e1fd" class="target-color"/><path d="M135.31,112.13l7.8,3.82c-4.09-2-9.13-2.15-14.6,0l-7.8-3.82C126.19,110,131.23,110.13,135.31,112.13Z" fill="#68e1fd" class="target-color"/><path d="M113.41,176.71l-7.8-3.82c-6.23-3.05-10.24-10.42-10.15-20.55.14-16.77,11.45-34.77,25.27-40.2l7.8,3.82c-13.82,5.43-25.12,23.43-25.27,40.2C103.17,166.29,107.17,173.66,113.41,176.71Z" fill="#68e1fd" class="target-color"/><path d="M293,39.73l8.45-3.12a16.48,16.48,0,0,1,11.66.35l-8.45,3.12A16.48,16.48,0,0,0,293,39.73Z" fill="#68e1fd" class="target-color"/><path d="M325.29,101.2l-8.45,3.12C324.17,101.62,329.06,93,329,81c-.14-17.64-11-36-24.3-40.94L313.11,37c13.28,5,24.15,23.3,24.3,40.94C337.51,89.9,332.61,98.5,325.29,101.2Z" fill="#68e1fd" class="target-color"/><path d="M252.47,118.87l6.85-3.24c3.53-1.67,7.88-1.67,12.58.36l-6.85,3.24C260.36,117.2,256,117.21,252.47,118.87Z" fill="#68e1fd" class="target-color"/><path d="M284.14,168.27l-6.85,3.24c5.24-2.47,8.67-8.61,8.73-17.17.1-14.33-9.29-30.05-21-35.1l6.85-3.24c11.67,5.05,21.05,20.77,21,35.1C292.81,159.67,289.38,165.8,284.14,168.27Z" fill="#68e1fd" class="target-color"/><g opacity="0.39"><path d="M75.65,107.16l-11.58-4.68C57.34,99.76,53,91.65,53.18,80.21c.33-17.55,11.31-36.27,24.52-41.82l11.58,4.68C76.07,48.62,65.09,67.35,64.76,84.89,64.55,96.33,68.92,104.44,75.65,107.16Z" fill="#311e69"/></g><path d="M89.28,43.07c13.21-5.55,23.66,4.17,23.33,21.71S101.31,101,88.1,106.6s-23.66-4.17-23.33-21.71S76.07,48.62,89.28,43.07Zm10.94,42.52a37.27,37.27,0,0,0,5.2-17.79c.11-5.94-1.53-10.8-4.62-13.67s-7.25-3.42-11.73-1.54c-4.26,1.79-8.35,5.62-11.53,10.78A37.86,37.86,0,0,0,72,80.2c0,.37.17.6.44.51a1,1,0,0,0,.54-.82A35.88,35.88,0,0,1,79,62.8l.36,1.37a.74.74,0,0,0,.85.64l1.67-.29a6.63,6.63,0,0,0-.45,2.24c0,1.17.67,2.79,2,4.81a.72.72,0,0,0,.94.24,2,2,0,0,0,1-1q1.09-2.37,1.66-4l2.21,1.93,0,.14-.08,4.07-1.11,2.53a2,2,0,0,0-.07,1.71l.24.42a.69.69,0,0,0,.75.37l1.82-.33.2-.06a1.8,1.8,0,0,0,.77-.71l2.21-3.49a2.59,2.59,0,0,0,.4-1.29l.09-4.76,1.71-3.58a.29.29,0,0,1,.13-.14l.81-.34a1,1,0,0,0,.5-.86c0-.36-.21-.56-.48-.45l-.81.34a2,2,0,0,0-.92,1l-1.68,3.44a2.55,2.55,0,0,0-.26,1l-.09,4.76-.06.19-2.21,3.5a.28.28,0,0,1-.12.1l-1.83.33-.11,0-.24-.42a.28.28,0,0,1,0-.24L90,73.44a2.5,2.5,0,0,0,.23-1l.08-4.07a1.23,1.23,0,0,0-.33-.95L87.5,65.29a5.81,5.81,0,0,0,.17-1.15c0-2.28-1.32-3.54-3-2.82a4.75,4.75,0,0,0-2,1.74l-2.22.38c-.06,0-.1,0-.12-.09l-.46-1.74a23.24,23.24,0,0,1,9.19-7.71c5.41-2.27,10.13-.65,12.87,3.69l-1.48,2.87-.12.12-.86.36a1,1,0,0,0-.5.86c0,.36.2.56.48.45l.86-.36a1.92,1.92,0,0,0,.89-.91l1.27-2.47a20.1,20.1,0,0,1,2,9.7,35.09,35.09,0,0,1-4.5,16l.23-2.6a1.54,1.54,0,0,0-.13-.85l-1.5-2.93a5.28,5.28,0,0,0,.15-1c0-2.27-1.32-3.53-3-2.82s-3,3-3.18,5.21L90.26,81l-2,.87a1.92,1.92,0,0,0-2.29-.4l-.24.11-1.47-1.06a.23.23,0,0,1,0-.27l.39-1a1.84,1.84,0,0,0,0-1.72l-1.12-1.4a.7.7,0,0,0-.88-.19l-2.79,1.17a2.07,2.07,0,0,0-1,1.15l-1.13,2.85a1.83,1.83,0,0,0,.05,1.69L78.6,84l0,.14L78.2,89a1.56,1.56,0,0,0,.12.83l1.11,2.28,0,.14L79,95.63a10.42,10.42,0,0,1-3.82-3.94.31.31,0,0,0-.41-.12.69.69,0,0,0-.26.21.94.94,0,0,0-.16,1c3,5.13,8.19,6.75,13.93,4.34,4.48-1.88,8.73-6,12-11.5m-26.31,5a1,1,0,0,0,.26-1,20.69,20.69,0,0,1-1.27-6.87c0-.34-.22-.51-.48-.4h0a1,1,0,0,0-.47.88,21.93,21.93,0,0,0,1.35,7.29.31.31,0,0,0,.44.19.65.65,0,0,0,.2-.14M94.38,58.22c0-.36-.21-.56-.48-.45l-.07,0a1,1,0,0,0-.5.86c0,.36.2.56.47.45l.07,0a1,1,0,0,0,.5-.86m-1.65,2.29c0-.36-.21-.56-.48-.45l-.06,0a1,1,0,0,0-.5.86c0,.36.21.56.48.45l.06,0a1,1,0,0,0,.5-.86" fill="#68e1fd" class="target-color"/><path d="M84.59,63.8c.27-.11.49.09.48.45v.28l.22-.09c.27-.11.48.09.47.45a1,1,0,0,1-.5.86l-.22.09v.29a1,1,0,0,1-.5.85c-.27.11-.49-.08-.48-.44v-.29l-.21.09c-.27.11-.49-.09-.48-.45a1,1,0,0,1,.5-.86l.21-.09v-.28A1,1,0,0,1,84.59,63.8Z"/><path d="M105.43,67.8c.11-5.94-1.53-10.8-4.62-13.67s-7.25-3.42-11.73-1.54c-4.26,1.79-8.35,5.62-11.53,10.78A37.86,37.86,0,0,0,72,80.2s0,0,0,.07c0,.32.18.51.46.43a1,1,0,0,0,.51-.75v-.07A35.88,35.88,0,0,1,79,62.8l.36,1.37a.74.74,0,0,0,.85.64l1.67-.29a6.63,6.63,0,0,0-.45,2.24c0,1.17.67,2.79,2,4.81a.72.72,0,0,0,.94.24,2,2,0,0,0,1-1q1.09-2.37,1.66-4l2.21,1.93,0,.14-.08,4.07,0,.07V73l-1.08,2.4a2,2,0,0,0-.07,1.71l.24.42a.69.69,0,0,0,.75.37l1.82-.33.2-.06a1.8,1.8,0,0,0,.77-.71l2.21-3.49a2.59,2.59,0,0,0,.4-1.29l.09-4.76,0-.07v-.07l1.68-3.44a.29.29,0,0,1,.13-.14l.81-.34a1,1,0,0,0,.5-.86c0-.36-.21-.56-.48-.45l-.81.34a2,2,0,0,0-.92,1l-1.68,3.44a2.55,2.55,0,0,0-.26,1l-.09,4.76-.06.19-2.21,3.5a.28.28,0,0,1-.12.1h0l-1.81.32-.11,0-.24-.42a.28.28,0,0,1,0-.24L90,73.44a2.5,2.5,0,0,0,.23-1l.08-4.07a1.23,1.23,0,0,0-.33-.95L87.5,65.29a5.81,5.81,0,0,0,.17-1.15c0-2.28-1.32-3.54-3-2.82a4.75,4.75,0,0,0-2,1.74l-2.22.38c-.06,0-.1,0-.12-.09l-.46-1.74a23.24,23.24,0,0,1,9.19-7.71c5.41-2.27,10.13-.65,12.87,3.69l-1.48,2.87-.12.12-.86.36a1,1,0,0,0-.5.86c0,.36.2.56.48.45l.86-.36a1.92,1.92,0,0,0,.89-.91l1.27-2.47a20.1,20.1,0,0,1,2,9.7,35.09,35.09,0,0,1-4.5,16l.23-2.6a1.54,1.54,0,0,0-.13-.85l-1.5-2.93a5.29,5.29,0,0,0,.15-1c0-2.27-1.32-3.53-3-2.82s-3,3-3.18,5.21L90.26,81h0l0,0-2,.83a1.92,1.92,0,0,0-2.29-.4l-.24.11-1.47-1.06a.23.23,0,0,1,0-.27l.39-1a1.84,1.84,0,0,0,0-1.72l-1.12-1.4a.7.7,0,0,0-.88-.19l-2.79,1.17a2.07,2.07,0,0,0-1,1.15l-1.13,2.85a1.83,1.83,0,0,0,.05,1.69L78.6,84l0,.14L78.2,89a1.56,1.56,0,0,0,.12.83l1.11,2.28,0,.14L79,95.63a10.42,10.42,0,0,1-3.82-3.94.31.31,0,0,0-.41-.12.69.69,0,0,0-.26.21.94.94,0,0,0-.16,1c3,5.13,8.19,6.75,13.93,4.34,4.48-1.88,8.73-6,12-11.5A37.27,37.27,0,0,0,105.43,67.8ZM84.62,62.62c1.17-.49,2.1.37,2.07,1.94a21.83,21.83,0,0,1-2.06,5.78.31.31,0,0,1-.16.17.12.12,0,0,1-.15,0,9.18,9.18,0,0,1-1.88-4.12,4.34,4.34,0,0,1,2.18-3.72m11,12.71c1.17-.49,2.1.37,2.07,1.93A21.94,21.94,0,0,1,95.64,83a.33.33,0,0,1-.16.17.12.12,0,0,1-.15,0A9.16,9.16,0,0,1,93.45,79a4.33,4.33,0,0,1,2.18-3.72M85.92,82.8c1.18-.49,2.11.37,2.08,1.93a21.85,21.85,0,0,1-2.07,5.78.31.31,0,0,1-.16.17.12.12,0,0,1-.15,0,9.15,9.15,0,0,1-1.88-4.12,4.33,4.33,0,0,1,2.18-3.72m12.9,3.33c-2.85,4.44-6.54,8-10.55,9.66a10.56,10.56,0,0,1-8.42.29l.56-4a1.69,1.69,0,0,0-.11-.94l-1.11-2.27,0-.12.44-4.86a1.38,1.38,0,0,0-.22-1l-.9-1.18a.26.26,0,0,1,0-.24l1.13-2.85a.29.29,0,0,1,.14-.16l2.79-1.17a.1.1,0,0,1,.13,0l1.11,1.41a.26.26,0,0,1,0,.24l-.39,1a1.61,1.61,0,0,0,.19,1.86l1,.7a7,7,0,0,0-1.79,4.42c0,1.17.67,2.79,2,4.81a.73.73,0,0,0,.94.25,2,2,0,0,0,1-1C88.2,87.71,89,85.49,89,84.32a4.37,4.37,0,0,0-.17-1.37l1.38-.58a1.39,1.39,0,0,0,.33-.2l2.09-1.69a12.73,12.73,0,0,0,1.92,3.79.73.73,0,0,0,.94.24,2.05,2.05,0,0,0,1-1c.7-1.52,1.24-2.82,1.62-3.89l1.14,2.23,0,.12-.38,4.19"/><path d="M95.61,76.51c.27-.11.49.09.48.45v.28l.21-.09c.28-.12.49.09.48.45a1,1,0,0,1-.5.86l-.21.09v.28a1,1,0,0,1-.5.86c-.27.11-.49-.09-.48-.45V79l-.21.09c-.27.11-.49-.09-.48-.45a1,1,0,0,1,.5-.86l.21-.09v-.28A1,1,0,0,1,95.61,76.51Z"/><path d="M95.48,83.22a.12.12,0,0,1-.15,0A9.16,9.16,0,0,1,93.45,79a4.33,4.33,0,0,1,2.18-3.72c1.17-.49,2.1.37,2.07,1.93A21.94,21.94,0,0,1,95.64,83,.33.33,0,0,1,95.48,83.22Zm-.41-4c0,.36.21.56.48.45a1,1,0,0,0,.5-.86v-.28l.21-.09a1,1,0,0,0,.5-.86c0-.36-.2-.56-.48-.45l-.21.09V77c0-.36-.21-.56-.48-.45a1,1,0,0,0-.5.86v.28l-.21.09a1,1,0,0,0-.5.86c0,.36.21.56.48.45l.21-.09v.28" fill="#68e1fd" class="target-color"/><path d="M89.62,87.4c.27-.11.49.08.48.44a1,1,0,0,1-.5.86l-.06,0c-.27.11-.49-.09-.48-.45a1,1,0,0,1,.5-.85Z"/><path d="M83.74,86.52a4.33,4.33,0,0,1,2.18-3.72c1.18-.49,2.11.37,2.08,1.93a21.84,21.84,0,0,1-2.07,5.78.31.31,0,0,1-.16.17.12.12,0,0,1-.15,0A9.15,9.15,0,0,1,83.74,86.52Zm1.44-1.31a1,1,0,0,0-.5.86c0,.36.21.55.48.44l.22-.09v.29c0,.36.2.56.47.45a1,1,0,0,0,.5-.86V86l.22-.09a1,1,0,0,0,.5-.85c0-.37-.21-.56-.48-.45l-.22.09v-.29c0-.36-.21-.56-.48-.45a1,1,0,0,0-.5.86v.29l-.22.09" fill="#68e1fd" class="target-color"/><path d="M93.9,57.77c.27-.11.49.09.48.45a1,1,0,0,1-.5.86l-.07,0c-.27.11-.48-.09-.47-.45a1,1,0,0,1,.5-.86Z"/><path d="M92.25,60.06c.27-.11.49.09.48.45a1,1,0,0,1-.5.86l-.06,0c-.27.11-.49-.09-.48-.45a1,1,0,0,1,.5-.86Z"/><path d="M98,79.58l1.14,2.23,0,.12-.38,4.19c-2.85,4.44-6.54,8-10.55,9.66a10.56,10.56,0,0,1-8.42.29l.56-4a1.69,1.69,0,0,0-.11-.94l-1.11-2.27,0-.12.44-4.86a1.38,1.38,0,0,0-.22-1l-.9-1.18a.26.26,0,0,1,0-.24l1.13-2.85a.29.29,0,0,1,.14-.16l2.79-1.17a.1.1,0,0,1,.13,0l1.11,1.41a.26.26,0,0,1,0,.24l-.39,1a1.61,1.61,0,0,0,.19,1.86l1,.7a7,7,0,0,0-1.79,4.42c0,1.17.67,2.79,2,4.81a.73.73,0,0,0,.94.25,2,2,0,0,0,1-1C88.2,87.71,89,85.49,89,84.32a4.37,4.37,0,0,0-.17-1.37l1.38-.58a1.39,1.39,0,0,0,.33-.2l2.09-1.69a12.73,12.73,0,0,0,1.92,3.79.73.73,0,0,0,.94.24,2.05,2.05,0,0,0,1-1C97.11,82,97.66,80.66,98,79.58ZM80.65,81.13a1,1,0,0,0,.5-.86c0-.36-.21-.56-.48-.45l-.06,0a1,1,0,0,0-.5.86c0,.36.2.56.48.45l.06,0M89.6,88.7a1,1,0,0,0,.5-.86c0-.36-.21-.55-.48-.44l-.06,0a1,1,0,0,0-.5.85c0,.36.21.56.48.45l.06,0" fill="#68e1fd" class="target-color"/><g opacity="0.39"><path d="M90.15,37.83l11.58,4.68c-3.59-1.45-7.85-1.37-12.45.56L77.7,38.39C82.3,36.46,86.56,36.38,90.15,37.83Z" fill="#311e69"/></g><g style="isolation:isolate"><path d="M144.63,148.9l-7.8-3.82a.44.44,0,0,0,.2,0,.78.78,0,0,0,.33-.25l7.8,3.82a.78.78,0,0,1-.33.25A.44.44,0,0,1,144.63,148.9Z" fill="#68e1fd" class="target-color"/><polygon points="131.68 148.09 123.87 144.27 136.83 145.08 144.63 148.9 131.68 148.09" fill="#68e1fd" class="target-color"/><polygon points="131.69 146.6 123.89 142.78 136.47 143.57 144.27 147.39 131.69 146.6"/><path d="M145.15,148.61l-7.8-3.82a1.12,1.12,0,0,0,.25-.67l7.8,3.82A1.12,1.12,0,0,1,145.15,148.61Z" fill="#68e1fd" class="target-color"/><path d="M128.22,160.31a.91.91,0,0,0,.46-.34l7.8,3.82a.91.91,0,0,1-.46.34Z" fill="#68e1fd" class="target-color"/><polygon points="129.8 165.32 122 161.5 128.22 160.31 136.03 164.13 129.8 165.32" fill="#68e1fd" class="target-color"/><polygon points="130.09 163.85 122.29 160.03 127.75 158.99 135.56 162.81 130.09 163.85"/><path d="M128.69,160a1.12,1.12,0,0,0,.21-.61l7.8,3.82a1.12,1.12,0,0,1-.21.61h0l-7.8-3.82Z" fill="#68e1fd" class="target-color"/><polygon points="145.41 147.95 137.6 144.13 137.64 139.94 145.44 143.76 145.41 147.95" fill="#68e1fd" class="target-color"/><polygon points="143.16 142.74 135.36 138.92 137.35 139.45 145.15 143.27 143.16 142.74"/><path d="M137.41,139.47l7.8,3.82a.49.49,0,0,1,.23.47l-7.8-3.82A.49.49,0,0,0,137.41,139.47Z" fill="#68e1fd" class="target-color"/><path d="M137.41,139.47l7.8,3.82-.06,0-7.8-3.82Z"/><polygon points="136.7 163.18 128.9 159.36 128.92 156.57 136.72 160.39 136.7 163.18" fill="#68e1fd" class="target-color"/><polygon points="144.27 147.39 136.47 143.57 136.49 140.81 144.29 144.63 144.27 147.39"/><polygon points="131 158.07 123.2 154.25 128.64 156.09 136.45 159.91 131 158.07"/><path d="M128.69,156.11l7.8,3.82a.48.48,0,0,1,.23.46l-7.8-3.82A.48.48,0,0,0,128.69,156.11Z" fill="#68e1fd" class="target-color"/><path d="M128.69,156.11l7.8,3.82,0,0-7.8-3.82Z"/><polygon points="135.56 162.81 127.75 158.99 127.77 157.42 135.57 161.24 135.56 162.81"/><polygon points="143.16 143.27 135.36 139.45 135.36 138.92 143.16 142.74 143.16 143.27"/><polygon points="131.73 141.29 123.93 137.47 136.49 140.81 144.29 144.63 131.73 141.29" fill="#68e1fd" class="target-color"/><polygon points="142.01 143.72 134.21 139.9 135.36 139.45 143.16 143.27 142.01 143.72"/><polygon points="143.16 142.74 135.36 138.92 135.38 137.36 143.18 141.18 143.16 142.74" fill="#68e1fd" class="target-color"/><polygon points="142.01 143.72 134.21 139.9 134.22 138.62 142.02 142.44 142.01 143.72"/><polygon points="142.02 142.44 134.22 138.62 134.23 137.81 142.03 141.63 142.02 142.44"/><path d="M134,137.34l7.8,3.82a.49.49,0,0,1,.23.47l-7.8-3.82A.49.49,0,0,0,134,137.34Z"/><path d="M134.67,135.94l7.8,3.82a1.47,1.47,0,0,1,.7,1.42l-7.8-3.82A1.47,1.47,0,0,0,134.67,135.94Z" fill="#68e1fd" class="target-color"/><polygon points="140.81 142.11 133 138.29 134.22 138.62 142.02 142.44 140.81 142.11"/><polygon points="140.81 142.11 133 138.29 133.08 138.26 140.88 142.08 140.81 142.11" fill="#68e1fd" class="target-color"/><path d="M134,137.34l7.8,3.82a.41.41,0,0,0-.34,0,1.05,1.05,0,0,0-.58.92l-7.8-3.82a1.05,1.05,0,0,1,.58-.92A.41.41,0,0,1,134,137.34Z" fill="#68e1fd" class="target-color"/><polygon points="139.74 142.53 131.93 138.71 133 138.29 140.81 142.11 139.74 142.53"/><path d="M141.47,139.76c1-.37,1.72.27,1.71,1.42v2.09l-1.15.45v-2.09c0-.38-.25-.59-.57-.47a1.05,1.05,0,0,0-.58.92l-.08,0-1.07.42a2.91,2.91,0,0,1,.09-.68A3.08,3.08,0,0,1,141.47,139.76Z"/><polygon points="129.15 165.44 121.35 161.62 122 161.5 129.8 165.32 129.15 165.44"/><polygon points="129.15 165.44 121.35 161.62 121.55 160.17 129.35 163.99 129.15 165.44"/><path d="M120.28,163.44A3.32,3.32,0,0,0,122,161.5l7.8,3.82a3.32,3.32,0,0,1-1.72,1.95l-7.77-3.81Z" fill="#68e1fd" class="target-color"/><path d="M120.27,163.44h0l7.8,3.82h0Z" fill="#68e1fd" class="target-color"/><path d="M134.67,135.94l7.8,3.82a1.22,1.22,0,0,0-1,0l-7.8-3.82A1.22,1.22,0,0,1,134.67,135.94Z"/><polygon points="129.35 163.99 121.55 160.17 122.29 160.03 130.09 163.85 129.35 163.99"/><polygon points="138.03 141.37 130.23 137.55 132.03 138.03 139.83 141.85 138.03 141.37"/><path d="M139.74,142.53l-7.8-3.82A2.91,2.91,0,0,1,132,138a3.08,3.08,0,0,1,1.64-2.09l7.8,3.82a3.08,3.08,0,0,0-1.64,2.09A2.91,2.91,0,0,0,139.74,142.53Z"/><polygon points="130.09 163.85 130.76 159.61 135.57 161.24 135.56 162.81 130.09 163.85" fill="#68e1fd" class="target-color"/><polygon points="130.76 159.61 122.96 155.79 127.77 157.42 135.57 161.24 130.76 159.61" fill="#68e1fd" class="target-color"/><polygon points="130.15 159.4 122.34 155.58 122.96 155.79 130.76 159.61 130.15 159.4"/><polygon points="130.09 163.85 122.29 160.03 122.96 155.79 130.76 159.61 130.09 163.85" fill="#68e1fd" class="target-color"/><path d="M127.66,165.87l-7.8-3.82a.53.53,0,0,0,.44,0,1.39,1.39,0,0,0,.76-1.09l7.8,3.82a1.39,1.39,0,0,1-.76,1.09A.53.53,0,0,1,127.66,165.87Z"/><path d="M119.17,163.44a1.35,1.35,0,0,0,1.1,0l7.8,3.82a1.35,1.35,0,0,1-1.1,0Z" fill="#68e1fd" class="target-color"/><polygon points="130.15 159.4 122.34 155.58 122.94 154.16 130.74 157.98 130.15 159.4"/><polygon points="130.74 157.98 122.94 154.16 123.2 154.25 131 158.07 130.74 157.98"/><polygon points="131 158.07 123.2 154.25 123.81 150.37 131.61 154.19 131 158.07" fill="#68e1fd" class="target-color"/><polygon points="128.85 164.78 121.05 160.96 122.68 150.62 130.48 154.44 128.85 164.78"/><polygon points="127.35 165.33 119.55 161.51 118.09 152.43 125.89 156.25 127.35 165.33" fill="#68e1fd" class="target-color"/><polygon points="127.04 166.28 119.24 162.46 119.06 161.15 126.86 164.97 127.04 166.28"/><path d="M127.66,165.87l-7.8-3.82a.64.64,0,0,1-.31-.53l7.8,3.82A.64.64,0,0,0,127.66,165.87Z" fill="#68e1fd" class="target-color"/><path d="M130.74,158l.26.09,5.44,1.84a.46.46,0,0,1,.28.48l0,2.79a1.12,1.12,0,0,1-.21.61.86.86,0,0,1-.37.31l-.09,0-6.22,1.18-.65.12.2-1.45.75-.14,5.46-1v-1.57l-4.81-1.63-.62-.21Z"/><polygon points="120.05 170.42 112.25 166.6 118.59 162.84 126.39 166.66 120.05 170.42" fill="#68e1fd" class="target-color"/><path d="M127,167.26l-7.8-3.82a1.27,1.27,0,0,1-.58-.6l7.8,3.82A1.27,1.27,0,0,0,127,167.26Z"/><polygon points="126.39 166.66 118.59 162.84 119.24 162.46 127.04 166.28 126.39 166.66"/><polygon points="138.03 141.82 130.22 138 130.23 137.55 138.03 141.37 138.03 141.82"/><polygon points="126.12 165.41 118.31 161.59 119.06 161.15 126.86 164.97 126.12 165.41"/><polygon points="131.61 154.19 123.81 150.37 123.82 150.24 131.63 154.06 131.61 154.19" fill="#68e1fd" class="target-color"/><polygon points="136.88 142.27 129.08 138.45 130.22 138 138.03 141.82 136.88 142.27"/><polygon points="138.03 141.37 130.23 137.55 130.24 135.9 138.04 139.72 138.03 141.37" fill="#68e1fd" class="target-color"/><polygon points="136.88 142.27 129.08 138.45 129.09 137.25 136.89 141.07 136.88 142.27"/><polygon points="135.74 140.76 127.94 136.94 129.09 137.25 136.89 141.07 135.74 140.76"/><polygon points="136.89 141.07 129.09 137.25 129.09 136.35 136.9 140.17 136.89 141.07"/><path d="M128.86,135.89l7.8,3.82a.49.49,0,0,1,.23.47l-7.8-3.82A.49.49,0,0,0,128.86,135.89Z"/><path d="M129.54,134.49l7.8,3.82a1.46,1.46,0,0,1,.7,1.41l-7.8-3.82A1.46,1.46,0,0,0,129.54,134.49Z" fill="#68e1fd" class="target-color"/><path d="M128.52,135.89a.41.41,0,0,1,.34,0l7.8,3.82a.41.41,0,0,0-.34,0h0l-.91-.45-1-.47-1-.49-1-.5-1-.5-1-.49-1-.47-.91-.45Z" fill="#68e1fd" class="target-color"/><polygon points="126.12 165.41 118.31 161.59 117.71 157.85 125.52 161.68 126.12 165.41"/><polygon points="125.52 161.68 117.71 157.85 118.34 157.16 126.14 160.97 125.52 161.68"/><polygon points="135.74 141.33 127.94 137.51 127.94 136.94 135.74 140.76 135.74 141.33"/><polygon points="135.74 140.76 127.94 136.94 127.94 136.81 135.74 140.63 135.74 140.76" fill="#68e1fd" class="target-color"/><path d="M127.94,136.81a1.05,1.05,0,0,1,.58-.92l7.8,3.82a1.05,1.05,0,0,0-.58.92Z" fill="#68e1fd" class="target-color"/><path d="M136.9,140.17v.89l-1.15-.31v-.13a1.05,1.05,0,0,1,.58-.92C136.64,139.58,136.9,139.79,136.9,140.17Z" fill="#68e1fd" class="target-color"/><polygon points="130.9 148.05 123.1 144.23 123.87 144.27 131.68 148.09 130.9 148.05"/><polygon points="131.63 154.06 123.82 150.24 123.87 144.27 131.68 148.09 131.63 154.06" fill="#68e1fd" class="target-color"/><path d="M129.54,134.49l7.8,3.82a1.23,1.23,0,0,0-1,0l-7.8-3.82A1.23,1.23,0,0,1,129.54,134.49Z"/><polygon points="134.59 141.78 126.79 137.96 127.94 137.51 135.74 141.33 134.59 141.78"/><polygon points="126.14 160.97 118.34 157.16 117.76 156.19 125.56 160.01 126.14 160.97"/><polygon points="125.3 160.31 117.5 156.49 117.76 156.19 125.56 160.01 125.3 160.31"/><polygon points="134.59 141.78 126.79 137.96 126.79 137.26 134.6 141.08 134.59 141.78"/><path d="M130.77,148l-7.8-3.82.13,0,7.8,3.82Z"/><polygon points="120.63 168.68 112.83 164.86 118.31 161.59 126.12 165.41 120.63 168.68"/><path d="M136.34,138.31c1-.37,1.72.26,1.71,1.41v2.09l-1.15.45v-2.09c0-.38-.25-.59-.57-.47a1.05,1.05,0,0,0-.58.92v.7l-1.15.45v-.7a2.86,2.86,0,0,1,.07-.6A3.09,3.09,0,0,1,136.34,138.31Z"/><polygon points="131.75 139.7 123.95 135.88 126.87 136.66 134.67 140.47 131.75 139.7"/><path d="M134.6,141.08l-7.8-3.82a2.86,2.86,0,0,1,.07-.6,3.09,3.09,0,0,1,1.67-2.16l7.8,3.82a3.09,3.09,0,0,0-1.67,2.16A2.86,2.86,0,0,0,134.6,141.08Z"/><path d="M111.91,166.6a.41.41,0,0,0,.33,0l7.8,3.82a.41.41,0,0,1-.33,0Z" fill="#68e1fd" class="target-color"/><polygon points="130.48 154.44 122.68 150.62 122.74 143.72 130.54 147.54 130.48 154.44"/><path d="M130.77,148l-7.8-3.82a.5.5,0,0,1-.23-.48l7.8,3.82A.5.5,0,0,0,130.77,148Z"/><path d="M119.72,170.42l-7.8-3.82,0,0a.51.51,0,0,1-.2-.45l7.8,3.82a.51.51,0,0,0,.2.45Z"/><polygon points="120.63 168.68 112.83 164.86 112.84 163.29 120.65 167.11 120.63 168.68" fill="#68e1fd" class="target-color"/><polygon points="120.65 167.11 112.84 163.29 117.71 157.85 125.52 161.68 120.65 167.11" fill="#68e1fd" class="target-color"/><polygon points="125.3 160.31 117.5 156.49 116.95 153.07 124.75 156.89 125.3 160.31"/><path d="M125.56,160l.58,1-.63.7-4.87,5.43v1.57l5.48-3.26.75-.44.18,1.31-.65.38-6.25,3.72-.09,0a.39.39,0,0,1-.37,0,.51.51,0,0,1-.2-.45l0-2.79a1.12,1.12,0,0,1,.28-.7l5.51-6.15Z"/><polygon points="120.65 167.11 125.52 161.68 126.12 165.41 120.63 168.68 120.65 167.11" fill="#68e1fd" class="target-color"/><polygon points="124.75 156.89 116.95 153.07 116.94 152.94 124.74 156.76 124.75 156.89"/><polygon points="119.48 169.95 111.68 166.13 111.7 163.34 119.5 167.16 119.48 169.95"/><polygon points="119.79 166.46 111.98 162.64 117.5 156.49 125.3 160.31 119.79 166.46"/><path d="M119.5,167.16l-7.8-3.82a1.12,1.12,0,0,1,.28-.7l7.8,3.82A1.12,1.12,0,0,0,119.5,167.16Z"/><polygon points="131.69 146.6 123.89 142.78 123.93 137.47 131.73 141.29 131.69 146.6" fill="#68e1fd" class="target-color"/><polygon points="131.45 139.62 123.65 135.8 123.95 135.88 131.75 139.7 131.45 139.62"/><polygon points="130.54 147.54 122.74 143.72 122.8 136.74 130.6 140.56 130.54 147.54"/><polygon points="131.75 139.7 123.95 135.88 124.01 128.43 131.81 132.25 131.75 139.7" fill="#68e1fd" class="target-color"/><polygon points="130.6 140.56 122.8 136.74 122.86 128.88 130.66 132.7 130.6 140.56"/><path d="M130.89,139.86l-7.8-3.82a.76.76,0,0,1,.29-.21.46.46,0,0,1,.27,0l7.8,3.82a.46.46,0,0,0-.27,0A.76.76,0,0,0,130.89,139.86Z"/><path d="M130.6,140.56l-7.8-3.82a1.11,1.11,0,0,1,.29-.7l7.8,3.82A1.11,1.11,0,0,0,130.6,140.56Z"/><path d="M145.15,143.27a.46.46,0,0,1,.29.49l0,4.19a1.12,1.12,0,0,1-.25.67.78.78,0,0,1-.33.25.44.44,0,0,1-.2,0l-13-.81-.77,0c-.22,0-.37-.22-.36-.51l.06-7a1.11,1.11,0,0,1,.29-.7.76.76,0,0,1,.29-.21.46.46,0,0,1,.27,0l.3.08,2.92.78a2.86,2.86,0,0,0-.07.6v.7l1.15-.45v-.56l1.15.31v1.2l1.15-.45v-.44l1.8.48a2.91,2.91,0,0,0-.09.68l1.07-.42,1.22.32v1.29l1.15-.45v-.53Zm-.88,4.13,0-2.76-12.56-3.35,0,5.32,12.58.79"/><polygon points="125.94 149.34 118.14 145.52 118.2 138.55 126 142.37 125.94 149.34"/><path d="M118,138.08l7.8,3.82a.48.48,0,0,1,.23.47l-7.8-3.82A.48.48,0,0,0,118,138.08Z"/><path d="M118,138.08l7.8,3.82,0,0-7.8-3.82Z"/><path d="M131.81,132.25l-7.8-3.82a13.64,13.64,0,0,0-1.14-5.83l7.8,3.82A13.64,13.64,0,0,1,131.81,132.25Z" fill="#68e1fd" class="target-color"/><polygon points="130.07 131.52 122.27 127.7 121.89 126.42 129.7 130.25 130.07 131.52" fill="#68e1fd" class="target-color"/><path d="M130.66,132.7l-7.8-3.82a12.51,12.51,0,0,0-1-5.3l7.8,3.82A12.51,12.51,0,0,1,130.66,132.7Z"/><polygon points="128.98 132.39 121.18 128.57 122.27 127.7 130.07 131.52 128.98 132.39" fill="#68e1fd" class="target-color"/><polygon points="128.98 132.39 121.18 128.57 120.8 127.29 128.6 131.11 128.98 132.39"/><path d="M121.41,125.81l7.8,3.82a1,1,0,0,1,.49.62l-7.8-3.82A1,1,0,0,0,121.41,125.81Z" fill="#68e1fd" class="target-color"/><path d="M120.72,127.19l7.8,3.82a.16.16,0,0,1,.08.1l-7.8-3.82A.16.16,0,0,0,120.72,127.19Z"/><polygon points="127.77 132.87 119.97 129.05 120.38 127.47 128.19 131.29 127.77 132.87" fill="#68e1fd" class="target-color"/><path d="M120.72,127.19l7.8,3.82a.16.16,0,0,0-.13,0,.38.38,0,0,0-.21.27l-7.8-3.82a.38.38,0,0,1,.21-.27A.16.16,0,0,1,120.72,127.19Z" fill="#68e1fd" class="target-color"/><path d="M121.41,125.81l7.8,3.82a1,1,0,0,0-.81,0l-7.8-3.82A1,1,0,0,1,121.41,125.81Z"/><polygon points="126.69 132.85 118.89 129.03 119.97 129.05 127.77 132.87 126.69 132.85" fill="#68e1fd" class="target-color"/><polygon points="126.69 132.85 118.89 129.03 119.29 127.48 127.09 131.3 126.69 132.85"/><path d="M122,121.61l7.8,3.82a1.78,1.78,0,0,1,.86,1l-7.8-3.82A1.78,1.78,0,0,0,122,121.61Z" fill="#68e1fd" class="target-color"/><path d="M121.32,123l7.8,3.82a1,1,0,0,1,.5.58l-7.8-3.82A1,1,0,0,0,121.32,123Z"/><path d="M127.09,131.3l-7.8-3.82a2.43,2.43,0,0,1,1.31-1.68l7.8,3.82A2.43,2.43,0,0,0,127.09,131.3Z"/><path d="M121.32,123l7.8,3.82a.91.91,0,0,0-.42-.09l-7.8-3.82A.91.91,0,0,1,121.32,123Z" fill="#68e1fd" class="target-color"/><path d="M126.08,134.5l-7.8-3.82a19.26,19.26,0,0,1,1.18-6.37,2.23,2.23,0,0,1,1.15-1.32,1,1,0,0,1,.3-.07l7.8,3.82a1,1,0,0,0-.3.07,2.23,2.23,0,0,0-1.15,1.32A19.26,19.26,0,0,0,126.08,134.5Z" fill="#68e1fd" class="target-color"/><path d="M124.92,135l-7.8-3.82a21.46,21.46,0,0,1,1.31-7.05,4.21,4.21,0,0,1,2.19-2.49,2.11,2.11,0,0,1,.61-.14l7.8,3.82a2.11,2.11,0,0,0-.61.14,4.21,4.21,0,0,0-2.19,2.49A21.46,21.46,0,0,0,124.92,135Z"/><polygon points="125.89 156.25 118.09 152.43 118.27 130.68 126.08 134.5 125.89 156.25" fill="#68e1fd" class="target-color"/><polygon points="124.74 156.76 116.94 152.94 116.99 146.98 124.79 150.8 124.74 156.76"/><polygon points="124.79 150.8 116.99 146.98 117.77 146.32 125.57 150.14 124.79 150.8"/><polygon points="111.74 161.83 103.94 158.01 116.99 146.98 124.79 150.8 111.74 161.83" fill="#68e1fd" class="target-color"/><polygon points="112.13 160.03 104.32 156.21 117 145.49 124.8 149.31 112.13 160.03"/><path d="M125.57,150.14l-7.8-3.82a1.11,1.11,0,0,0,.38-.8l7.8,3.82A1.11,1.11,0,0,1,125.57,150.14Z"/><polygon points="124.8 149.31 117 145.49 117.05 140.17 124.85 144 124.8 149.31"/><polygon points="124.86 142.41 117.06 138.59 117.36 138.27 125.17 142.09 124.86 142.41"/><polygon points="124.86 142.41 117.06 138.59 117.12 131.13 124.92 134.96 124.86 142.41"/><path d="M125.17,142.09l-7.8-3.82a.79.79,0,0,1,.27-.19.41.41,0,0,1,.29,0l7.8,3.82a.41.41,0,0,0-.29,0A.79.79,0,0,0,125.17,142.09Z"/><polygon points="112.15 157.27 104.35 153.45 117.05 140.17 124.85 144 112.15 157.27" fill="#68e1fd" class="target-color"/><polygon points="121.96 146.74 114.16 142.92 114.17 142.22 121.97 146.04 121.96 146.74"/><polygon points="121.91 145.49 114.11 141.67 117.06 138.59 124.86 142.41 121.91 145.49"/><path d="M114.11,141.67l7.8,3.82a2.17,2.17,0,0,1,.06.55l-7.8-3.82A2.17,2.17,0,0,0,114.11,141.67Z"/><polygon points="120.82 147.19 113.01 143.37 114.16 142.92 121.96 146.74 120.82 147.19"/><polygon points="120.82 147.19 113.01 143.37 113.02 142.81 120.82 146.63 120.82 147.19"/><polygon points="120.82 146.63 113.02 142.81 113.02 142.67 120.82 146.49 120.82 146.63"/><path d="M112.79,142.2l7.8,3.82a.49.49,0,0,1,.23.47l-7.8-3.82A.49.49,0,0,0,112.79,142.2Z"/><path d="M114.11,141.67a1.26,1.26,0,0,0-.64-.86l7.8,3.82a1.26,1.26,0,0,1,.64.86Z" fill="#68e1fd" class="target-color"/><polygon points="119.66 149.04 111.86 145.22 111.87 144.01 119.67 147.84 119.66 149.04"/><polygon points="119.67 147.84 111.87 144.01 113.02 142.81 120.82 146.63 119.67 147.84"/><path d="M112.46,142.2a.41.41,0,0,1,.33,0l7.8,3.82a.41.41,0,0,0-.33,0h0l-.91-.45-1-.47-1-.49-1-.5-1-.5-1-.49-1-.47-.91-.45Z" fill="#68e1fd" class="target-color"/><polygon points="118.51 149.49 110.71 145.67 111.86 145.22 119.66 149.04 118.51 149.49"/><polygon points="119.67 147.84 111.87 144.01 111.87 143.12 119.67 146.94 119.67 147.84" fill="#68e1fd" class="target-color"/><polygon points="116.7 150.94 108.89 147.12 110.71 145.22 118.51 149.04 116.7 150.94"/><polygon points="118.51 149.49 110.71 145.67 110.71 145.22 118.51 149.04 118.51 149.49"/><path d="M111.87,143.12a1.05,1.05,0,0,1,.58-.92l7.8,3.82a1.05,1.05,0,0,0-.58.92Z" fill="#68e1fd" class="target-color"/><path d="M120.82,146.49v.14l-1.15,1.21v-.89a1.05,1.05,0,0,1,.58-.92C120.57,145.9,120.83,146.11,120.82,146.49Z" fill="#68e1fd" class="target-color"/><path d="M128.4,129.62a.93.93,0,0,1,1.3.63l.38,1.28-1.09.87-.38-1.28a.15.15,0,0,0-.21-.1.38.38,0,0,0-.21.27l-.41,1.58-1.08,0,.4-1.55A2.43,2.43,0,0,1,128.4,129.62Z"/><path d="M113.47,140.81l7.8,3.82a1.22,1.22,0,0,0-1,0l-7.8-3.82A1.22,1.22,0,0,1,113.47,140.81Z"/><polygon points="118.51 149.04 110.71 145.22 110.73 143.57 118.53 147.39 118.51 149.04"/><path d="M109,147.74a2.13,2.13,0,0,0-.08-.61l7.8,3.82a2.13,2.13,0,0,1,.08.61l-3.9-1.91Z"/><path d="M111.2,162l-7.8-3.82h0a.42.42,0,0,0,.33,0,.7.7,0,0,0,.2-.12l7.8,3.82a.7.7,0,0,1-.2.12.42.42,0,0,1-.33,0Z" fill="#68e1fd" class="target-color"/><path d="M122,121.61l7.8,3.82a1.69,1.69,0,0,0-.78-.17l-7.8-3.82A1.69,1.69,0,0,1,122,121.61Z"/><path d="M120.27,144.63a1.15,1.15,0,0,1,1.64.86,2.17,2.17,0,0,1,.06.55v.7l-1.15.45v-.7c0-.38-.25-.59-.57-.47a1.05,1.05,0,0,0-.58.92V149l-1.15.45v-2.09A3.16,3.16,0,0,1,120.27,144.63Z"/><path d="M118.53,147.39l-7.8-3.82a3.16,3.16,0,0,1,1.74-2.76l7.8,3.82A3.16,3.16,0,0,0,118.53,147.39Z"/><polygon points="115.71 151.98 107.9 148.16 108.97 147.74 116.78 151.56 115.71 151.98"/><polygon points="114.47 153.26 106.67 149.44 107.9 148.16 115.71 151.98 114.47 153.26"/><polygon points="115.63 152.01 107.83 148.19 107.9 148.16 115.71 151.98 115.63 152.01" fill="#68e1fd" class="target-color"/><path d="M111.2,162l-7.8-3.82a.49.49,0,0,1-.23-.47l7.8,3.82A.49.49,0,0,0,111.2,162Z"/><path d="M130.89,139.86a1.11,1.11,0,0,0-.29.7l.07-7.87a12.51,12.51,0,0,0-1-5.3,1,1,0,0,0-.91-.67,1,1,0,0,0-.3.07,2.23,2.23,0,0,0-1.15,1.32,19.26,19.26,0,0,0-1.18,6.37l-.19,21.75,1.46,9.09c.05.47.37.68.75.53a1.39,1.39,0,0,0,.76-1.09l1.63-10.34.06-6.9c0,.29.14.5.36.51l.77,0-.05,6v.14l-.61,3.88-.26-.09-.6,1.42.62.21-.67,4.24-.75.14-.2,1.45.65-.12a3.32,3.32,0,0,1-1.72,1.94,1.25,1.25,0,0,1-1.69-.6l.65-.38-.18-1.31-.75.44-.6-3.74.63-.7-.58-1-.26.3-.55-3.42v-.13l.05-6,.78-.66a1.11,1.11,0,0,0,.38-.8l.06-7a.46.46,0,0,0-.27-.48.41.41,0,0,0-.29,0,.79.79,0,0,0-.27.19l-.31.32.06-7.45a21.46,21.46,0,0,1,1.31-7.05,4.21,4.21,0,0,1,2.19-2.49,2.11,2.11,0,0,1,.61-.14,1.67,1.67,0,0,1,1.64,1.15,13.64,13.64,0,0,1,1.14,5.83l-.06,7.45-.3-.08a.46.46,0,0,0-.27,0A.76.76,0,0,0,130.89,139.86Z"/><path d="M130.66,132.7l-.18,21.74-1.63,10.34a1.39,1.39,0,0,1-.76,1.09c-.38.15-.7-.07-.75-.53l-1.46-9.09.19-21.75a19.26,19.26,0,0,1,1.18-6.37,2.23,2.23,0,0,1,1.15-1.32,1,1,0,0,1,.3-.07,1,1,0,0,1,.91.67A12.51,12.51,0,0,1,130.66,132.7Zm-1.68-.31,1.09-.87-.38-1.28a.93.93,0,0,0-1.3-.63,2.43,2.43,0,0,0-1.31,1.68l-.4,1.55,1.08,0,.41-1.58a.38.38,0,0,1,.21-.27.15.15,0,0,1,.21.1l.38,1.28" fill="#68e1fd" class="target-color"/><path d="M107.59,147.72l7.8,3.82a.49.49,0,0,1,.23.47l-7.8-3.82A.49.49,0,0,0,107.59,147.72Z"/><path d="M108.27,146.32l7.8,3.82a1.24,1.24,0,0,1,.62.8l-7.8-3.82A1.24,1.24,0,0,0,108.27,146.32Z" fill="#68e1fd" class="target-color"/><polygon points="114.46 154.55 106.66 150.73 106.67 149.44 114.47 153.26 114.46 154.55"/><polygon points="113.32 155 105.52 151.18 106.66 150.73 114.46 154.55 113.32 155"/><polygon points="112.13 160.03 112.15 157.27 124.85 144 124.8 149.31 112.13 160.03" fill="#68e1fd" class="target-color"/><polygon points="112.13 160.03 104.32 156.21 104.35 153.45 112.15 157.27 112.13 160.03" fill="#68e1fd" class="target-color"/><polygon points="114.47 153.26 106.67 149.44 106.68 148.64 114.48 152.46 114.47 153.26" fill="#68e1fd" class="target-color"/><polygon points="111.31 156.57 103.51 152.75 105.52 150.65 113.32 154.47 111.31 156.57"/><polygon points="113.32 155 105.52 151.18 105.52 150.65 113.32 154.47 113.32 155"/><path d="M107.59,147.72l7.8,3.82a.41.41,0,0,0-.34,0,1.05,1.05,0,0,0-.58.92l-7.8-3.82a1.05,1.05,0,0,1,.58-.92A.41.41,0,0,1,107.59,147.72Z" fill="#68e1fd" class="target-color"/><path d="M115.63,152l.08,0-1.23,1.29v-.81a1.05,1.05,0,0,1,.58-.92C115.38,151.42,115.63,151.63,115.63,152Z" fill="#68e1fd" class="target-color"/><path d="M108.27,146.32l7.8,3.82a1.22,1.22,0,0,0-1,0l-7.8-3.82A1.22,1.22,0,0,1,108.27,146.32Z"/><polygon points="113.32 154.47 105.52 150.65 105.53 149.09 113.33 152.91 113.32 154.47"/><polygon points="110.97 161.49 103.17 157.66 103.2 153.48 111.01 157.3 110.97 161.49"/><path d="M111,157.3l-7.8-3.82a1.13,1.13,0,0,1,.31-.73l7.8,3.82A1.13,1.13,0,0,0,111,157.3Z"/><path d="M125.73,141.88a.46.46,0,0,1,.27.48l-.06,7a1.11,1.11,0,0,1-.38.8l-.78.66-13,11a.7.7,0,0,1-.2.12.42.42,0,0,1-.33,0,.48.48,0,0,1-.24-.47l0-4.19a1.13,1.13,0,0,1,.31-.73l2-2.1V155l1.15-.45v-1.29l1.23-1.29,1.07-.42a2.13,2.13,0,0,0-.08-.61l1.82-1.9v.44l1.15-.45v-1.2l1.15-1.21v.56l1.15-.45V146a2.17,2.17,0,0,0-.06-.55l3-3.09.31-.32a.79.79,0,0,1,.27-.19A.41.41,0,0,1,125.73,141.88Zm-.93,7.43,0-5.32-12.7,13.27,0,2.76,12.68-10.72"/><path d="M113.33,152.91l-7.8-3.82a3.17,3.17,0,0,1,1.74-2.77l7.8,3.82A3.17,3.17,0,0,0,113.33,152.91Z"/><path d="M115.07,150.14a1.15,1.15,0,0,1,1.63.8,2.13,2.13,0,0,1,.08.61l-1.07.42-.08,0c0-.38-.25-.59-.57-.47a1.05,1.05,0,0,0-.58.92v2.09l-1.15.45v-2.09A3.17,3.17,0,0,1,115.07,150.14Z"/><path d="M128.52,116c13.81-5.43,24.89,3.77,24.75,20.55s-11.46,34.78-25.27,40.2-24.89-3.77-24.75-20.55S114.7,121.39,128.52,116Zm16.89,32,0-4.19a.46.46,0,0,0-.29-.49l-2-.53v-1.56c0-1.15-.75-1.79-1.71-1.42a3.08,3.08,0,0,0-1.64,2.09l-1.8-.48v-1.65c0-1.15-.75-1.78-1.71-1.41a3.09,3.09,0,0,0-1.67,2.16l-2.92-.78.06-7.45a13.64,13.64,0,0,0-1.14-5.83,1.67,1.67,0,0,0-1.64-1.15,2.11,2.11,0,0,0-.61.14,4.21,4.21,0,0,0-2.19,2.49,21.46,21.46,0,0,0-1.31,7.05l-.06,7.45-3,3.09a1.15,1.15,0,0,0-1.64-.86,3.16,3.16,0,0,0-1.74,2.76V149l-1.82,1.9a1.15,1.15,0,0,0-1.63-.8,3.17,3.17,0,0,0-1.74,2.77v1.56l-2,2.1a1.13,1.13,0,0,0-.31.73l0,4.19a.48.48,0,0,0,.24.47.42.42,0,0,0,.33,0,.7.7,0,0,0,.2-.12l13-11-.05,6v.13l.55,3.42-5.51,6.15a1.12,1.12,0,0,0-.28.7l0,2.79a.51.51,0,0,0,.2.45.39.39,0,0,0,.37,0l6.34-3.76a1.25,1.25,0,0,0,1.68.6,3.32,3.32,0,0,0,1.72-1.95l6.22-1.18a.91.91,0,0,0,.46-.34,1.12,1.12,0,0,0,.21-.61l0-2.79a.46.46,0,0,0-.28-.48L131,158.07l.61-3.88v-.14l.05-6,13,.81a.44.44,0,0,0,.2,0,.78.78,0,0,0,.33-.25,1.12,1.12,0,0,0,.25-.67" fill="#68e1fd" class="target-color"/><path d="M142,141.63v.81l-1.22-.32.08,0a1.05,1.05,0,0,1,.58-.92C141.78,141,142,141.25,142,141.63Z" fill="#68e1fd" class="target-color"/><polygon points="131.69 146.6 131.73 141.29 144.29 144.63 144.27 147.39 131.69 146.6" fill="#68e1fd" class="target-color"/><g opacity="0.5"><path d="M135.31,112.13l7.8,3.82c-4.09-2-9.13-2.15-14.6,0l-7.8-3.82C126.19,110,131.23,110.13,135.31,112.13Z" fill="#311e69"/></g><g opacity="0.5"><path d="M113.41,176.71l-7.8-3.82c-6.23-3.05-10.24-10.42-10.15-20.55.14-16.77,11.45-34.77,25.27-40.2l7.8,3.82c-13.82,5.43-25.12,23.43-25.27,40.2C103.17,166.29,107.17,173.66,113.41,176.71Z" fill="#311e69"/></g></g><g style="isolation:isolate"><polygon points="290.74 59.22 299.19 56.1 299.38 80.01 290.94 83.13 290.74 59.22" fill="#68e1fd" class="target-color"/><polygon points="292.51 73.69 300.96 70.56 301.02 78.42 292.58 81.55 292.51 73.69"/><polygon points="292.51 73.69 300.96 70.56 303.71 71.59 295.26 74.72 292.51 73.69" fill="#68e1fd" class="target-color"/><polygon points="295.26 74.72 303.71 71.59 303.73 74.53 295.29 77.65 295.26 74.72" fill="#68e1fd" class="target-color"/><polygon points="292.49 71.48 300.94 68.36 303.69 69.39 295.25 72.52 292.49 71.48"/><polygon points="292.4 59.84 300.85 56.72 300.94 68.36 292.49 71.48 292.4 59.84"/><polygon points="295.23 70.31 303.68 67.19 303.69 69.39 295.25 72.52 295.23 70.31" fill="#68e1fd" class="target-color"/><polygon points="296.9 73.14 305.35 70.01 305.37 72.95 296.93 76.07 296.9 73.14"/><polygon points="290.94 83.13 299.38 80.01 327.63 90.58 319.19 93.7 290.94 83.13" fill="#68e1fd" class="target-color"/><polygon points="292.58 81.55 301.02 78.42 325.96 87.75 317.51 90.88 292.58 81.55"/><polygon points="295.29 77.65 303.73 74.53 308.78 76.42 300.33 79.54 295.29 77.65" fill="#68e1fd" class="target-color"/><polygon points="296.93 76.07 305.37 72.95 307.1 73.6 298.66 76.72 296.93 76.07"/><path d="M293,58.73l8.45-3.12a1.09,1.09,0,0,0-.58,1.11l-8.45,3.12A1.09,1.09,0,0,1,293,58.73Z"/><path d="M292.16,56.51l8.45-3.12a2.66,2.66,0,0,0-1.42,2.72l-8.45,3.12A2.66,2.66,0,0,1,292.16,56.51Z" fill="#68e1fd" class="target-color"/><polygon points="298.63 73.78 307.08 70.66 307.1 73.6 298.66 76.72 298.63 73.78" fill="#68e1fd" class="target-color"/><polygon points="296.9 73.14 305.35 70.01 307.08 70.66 298.63 73.78 296.9 73.14" fill="#68e1fd" class="target-color"/><path d="M293,58.73l8.45-3.12a.79.79,0,0,1,.56,0l-8.45,3.12A.79.79,0,0,0,293,58.73Z" fill="#68e1fd" class="target-color"/><polygon points="300.31 76.6 308.75 73.48 308.78 76.42 300.33 79.54 300.31 76.6"/><path d="M292.16,56.51l8.45-3.12a1.93,1.93,0,0,1,1.36,0l-8.45,3.12A1.93,1.93,0,0,0,292.16,56.51Z"/><polygon points="295.23 70.31 303.68 67.19 308.72 69.08 300.27 72.2 295.23 70.31"/><polygon points="300.27 72.2 308.72 69.08 308.74 71.28 300.29 74.4 300.27 72.2"/><polygon points="301.44 66.2 309.89 63.08 309.91 65.28 301.46 68.4 301.44 66.2" fill="#68e1fd" class="target-color"/><polygon points="301.46 68.4 309.91 65.28 316.8 67.86 308.35 70.98 301.46 68.4" fill="#68e1fd" class="target-color"/><polygon points="301.44 66.2 309.89 63.08 316.78 65.66 308.34 68.78 301.44 66.2"/><polygon points="308.34 68.78 316.78 65.66 316.8 67.86 308.35 70.98 308.34 68.78"/><polygon points="300.31 76.6 308.75 73.48 318.1 76.98 309.65 80.1 300.31 76.6" fill="#68e1fd" class="target-color"/><polygon points="309.65 80.1 318.1 76.98 318.12 79.91 309.67 83.04 309.65 80.1" fill="#68e1fd" class="target-color"/><polygon points="300.29 74.4 308.74 71.28 318.08 74.78 309.63 77.9 300.29 74.4"/><polygon points="309.61 75.7 318.06 72.57 318.08 74.78 309.63 77.9 309.61 75.7" fill="#68e1fd" class="target-color"/><polygon points="311.29 78.52 319.73 75.39 319.76 78.33 311.31 81.45 311.29 78.52"/><polygon points="309.67 83.04 318.12 79.91 323.16 81.8 314.71 84.92 309.67 83.04" fill="#68e1fd" class="target-color"/><polygon points="311.31 81.45 319.76 78.33 321.49 78.98 313.04 82.1 311.31 81.45"/><polygon points="313.02 79.17 321.46 76.04 321.49 78.98 313.04 82.1 313.02 79.17" fill="#68e1fd" class="target-color"/><polygon points="311.29 78.52 319.73 75.39 321.46 76.04 313.02 79.17 311.29 78.52" fill="#68e1fd" class="target-color"/><polygon points="309.61 75.7 318.06 72.57 323.1 74.46 314.66 77.58 309.61 75.7"/><polygon points="314.66 77.58 323.1 74.46 323.12 76.66 314.67 79.78 314.66 77.58"/><polygon points="314.67 79.78 323.12 76.66 325.88 77.69 317.43 80.82 314.67 79.78"/><polygon points="317.34 69.17 325.78 66.05 325.88 77.69 317.43 80.82 317.34 69.17" fill="#68e1fd" class="target-color"/><path d="M316.17,67.22l8.45-3.12a2.18,2.18,0,0,1,1.16,2l-8.45,3.12A2.18,2.18,0,0,0,316.17,67.22Z" fill="#68e1fd" class="target-color"/><path d="M316.16,65l8.45-3.12c1.55.58,2.82,2.72,2.84,4.78L319,69.79C319,67.73,317.7,65.59,316.16,65Z"/><polygon points="293.54 58.75 301.99 55.63 324.62 64.09 316.17 67.22 293.54 58.75"/><polygon points="293.52 56.55 301.97 53.42 306.95 55.29 298.51 58.41 293.52 56.55"/><polygon points="300.14 56.09 308.59 52.97 308.61 55.91 300.17 59.03 300.14 56.09"/><polygon points="314.69 81.99 323.14 78.86 323.16 81.8 314.71 84.92 314.69 81.99"/><polygon points="300.17 59.03 308.61 55.91 317.95 59.41 309.51 62.53 300.17 59.03"/><polygon points="317.45 83.02 325.89 79.9 325.96 87.75 317.51 90.88 317.45 83.02" fill="#68e1fd" class="target-color"/><polygon points="314.69 81.99 323.14 78.86 325.89 79.9 317.45 83.02 314.69 81.99" fill="#68e1fd" class="target-color"/><path d="M318,66.56l-1.79.66a2.18,2.18,0,0,1,1.16,2l.09,11.64-2.76-1,0-2.2-5-1.89,0,2.2-9.34-3.5,0-2.2-5-1.89,0,2.2-2.75-1-.09-11.64c0-.84.5-1.33,1.14-1.09l3-1.09-3-1.11c-1.55-.58-2.79.62-2.78,2.68l.19,23.91L319.19,93.7,319,69.79A6,6,0,0,0,318,66.56ZM313,79.16l0,2.94-1.73-.65,0-2.94,1.73.65m-14.38-5.38,0,2.94-1.73-.65,0-2.94,1.73.65m-6.06,7.76-.06-7.86,2.75,1,0,2.94,5,1.89,0-2.94,9.34,3.5,0,2.94,5,1.89,0-2.94,2.76,1,.06,7.86-24.94-9.33m7.57-25.24v-.21l.29.11,1.56-.58L311.13,59V58l-12.65-4.73,0,3.64Z"/><polygon points="296.9 73.14 298.63 73.78 298.66 76.72 296.93 76.07 296.9 73.14" fill="#68e1fd" class="target-color"/><polygon points="308.34 68.78 308.35 70.98 301.46 68.4 301.44 66.2 308.34 68.78"/><polygon points="311.29 78.52 313.02 79.17 313.04 82.1 311.31 81.45 311.29 78.52" fill="#68e1fd" class="target-color"/><polygon points="309.48 59.59 309.51 62.53 300.17 59.03 300.14 56.09 309.48 59.59" fill="#68e1fd" class="target-color"/><polygon points="311.12 58.01 319.57 54.89 319.61 60.02 311.16 63.15 311.12 58.01"/><polygon points="298.47 53.27 306.91 50.15 319.57 54.89 311.12 58.01 298.47 53.27"/><g opacity="0.44"><path d="M293,39.73l8.45-3.12a16.48,16.48,0,0,1,11.66.35l-8.45,3.12A16.48,16.48,0,0,0,293,39.73Z" fill="#311e69"/></g><polygon points="311.16 63.15 319.61 60.02 324.6 61.89 316.15 65.02 311.16 63.15"/><polygon points="318.99 69.79 327.44 66.67 327.63 90.58 319.19 93.7 318.99 69.79"/><path d="M304.67,40.07C317.95,45,328.82,63.37,329,81s-10.5,27.93-23.78,23S281,80.68,280.89,63,291.4,35.11,304.67,40.07ZM319.19,93.7,319,69.79c0-2.06-1.29-4.2-2.84-4.78l-5-1.87,0-5.14-12.65-4.73,0,5.14-5-1.87c-1.55-.58-2.79.62-2.78,2.68l.19,23.91L319.19,93.7" fill="#68e1fd" class="target-color"/><polygon points="314.71 84.92 314.69 81.99 317.45 83.02 317.51 90.88 292.58 81.55 292.51 73.69 295.26 74.72 295.29 77.65 300.33 79.54 300.31 76.6 309.65 80.1 309.67 83.04 314.71 84.92" fill="#68e1fd" class="target-color"/><path d="M316.17,67.22a2.18,2.18,0,0,1,1.16,2l.09,11.64-2.76-1,0-2.2-5-1.89,0,2.2-9.34-3.5,0-2.2-5-1.89,0,2.2-2.75-1-.09-11.64c0-.84.5-1.33,1.14-1.09ZM308.35,71l0-2.2-6.89-2.58,0,2.2L308.35,71" fill="#68e1fd" class="target-color"/><g opacity="0.44"><path d="M325.29,101.2l-8.45,3.12C324.17,101.62,329.06,93,329,81c-.14-17.64-11-36-24.3-40.94L313.11,37c13.28,5,24.15,23.3,24.3,40.94C337.51,89.9,332.61,98.5,325.29,101.2Z" fill="#311e69"/></g></g><g style="isolation:isolate"><path d="M256.57,135.39c-.07,10.27,6.68,21.57,15,25.19l-6.85,3.24c-8.36-3.62-15.11-14.92-15-25.19l.8-.38.85-.4.88-.42.9-.42,1.78-.84.85-.4Z" fill="#68e1fd" class="target-color"/><path d="M262.84,123.07c-3.76,1.78-6.23,6.18-6.27,12.32l-6.85,3.24c0-6.14,2.51-10.54,6.27-12.32Z" fill="#68e1fd" class="target-color"/><path d="M257.15,128.79l6.85-3.24c-3.27,1.54-5.41,5.37-5.45,10.7-.06,8.93,5.8,18.75,13.06,21.89l-6.85,3.24c-7.26-3.14-13.13-13-13.06-21.89C251.74,134.16,253.88,130.33,257.15,128.79Z"/><polygon points="262.12 140.58 268.98 137.34 264.4 147.75 257.55 150.98 262.12 140.58" fill="#68e1fd" class="target-color"/><path d="M271.61,160.58a10.77,10.77,0,0,0,9,.26l-6.85,3.24a10.77,10.77,0,0,1-9-.26Z" fill="#68e1fd" class="target-color"/><path d="M279.46,158.36l-6.85,3.24a9.36,9.36,0,0,1-7.84-.22l6.85-3.24A9.36,9.36,0,0,0,279.46,158.36Z"/><polygon points="272.21 139.41 279.06 136.17 274.49 146.57 267.63 149.8 272.21 139.41"/><polygon points="257.55 150.98 264.4 147.75 274.49 146.57 267.63 149.8 257.55 150.98" fill="#68e1fd" class="target-color"/><path d="M264,125.55a9.35,9.35,0,0,1,7.83.22L265,129a9.35,9.35,0,0,0-7.83-.22Z" fill="#68e1fd" class="target-color"/><path d="M256,126.31l6.85-3.24a10.77,10.77,0,0,1,9,.25L265,126.56A10.77,10.77,0,0,0,256,126.31Z"/><polygon points="262.12 140.58 268.98 137.34 279.06 136.17 272.21 139.41 262.12 140.58"/><path d="M265,129c7.27,3.15,13.13,13,13.07,21.88s-6,13.63-13.29,10.48-13.13-13-13.06-21.89S257.73,125.87,265,129Zm2.64,20.79,4.58-10.4-10.09,1.17L257.55,151l10.09-1.18" fill="#68e1fd" class="target-color"/><path d="M284.91,147.66c0,5.33-2.18,9.16-5.45,10.7l-6.85,3.24c3.27-1.54,5.41-5.37,5.45-10.7h0l.8-.38.85-.4.88-.42.9-.42.9-.42.88-.42.85-.4Z" fill="#68e1fd" class="target-color"/><g opacity="0.49"><path d="M252.47,118.87l6.85-3.24c3.53-1.67,7.88-1.67,12.58.36l-6.85,3.24C260.36,117.2,256,117.21,252.47,118.87Z" fill="#311e69"/></g><path d="M271.84,125.77c7.27,3.15,13.13,13,13.07,21.88l-6.85,3.24c.06-8.92-5.8-18.74-13.07-21.88Z" fill="#68e1fd" class="target-color"/><path d="M280.63,160.84l-6.85,3.24c3.76-1.78,6.23-6.18,6.27-12.32.07-10.27-6.68-21.57-15-25.19l6.85-3.24c8.36,3.62,15.11,14.92,15,25.19C286.86,154.66,284.39,159.06,280.63,160.84Z"/><g opacity="0.49"><path d="M284.14,168.27l-6.85,3.24c5.24-2.47,8.67-8.61,8.73-17.17.1-14.33-9.29-30.05-21-35.1l6.85-3.24c11.67,5.05,21.05,20.77,21,35.1C292.81,159.67,289.38,165.8,284.14,168.27Z" fill="#311e69"/></g><path d="M265.05,119.23c11.67,5.05,21.05,20.77,21,35.1s-9.64,21.86-21.31,16.81-21.05-20.77-21-35.1S253.38,114.18,265.05,119.23Zm-.3,44.58C273.12,167.44,280,162,280,151.75s-6.68-21.57-15-25.19-15.22,1.79-15.29,12.06,6.68,21.57,15,25.19" fill="#68e1fd" class="target-color"/><polygon points="272.21 139.41 267.63 149.8 257.55 150.98 262.12 140.58 272.21 139.41"/><path d="M265,126.56c8.36,3.62,15.11,14.92,15,25.19s-6.93,15.68-15.29,12.06-15.11-14.92-15-25.19S256.64,122.94,265,126.56Zm-.24,34.81c7.27,3.15,13.23-1.56,13.29-10.48S272.26,132.15,265,129s-13.22,1.56-13.28,10.48,5.8,18.75,13.06,21.89"/></g></g></g></svg>